<svg xmlns="http://www.w3.org/2000/svg" version="1.1" xmlns:xlink="http://www.w3.org/1999/xlink" xmlns:svgjs="http://svgjs.com/svgjs" width="82.6" height="76.48"><svg id="SvgjsSvg1001" data-name="Layer 2" xmlns="http://www.w3.org/2000/svg" viewBox="0 0 82.6 76.48">
  <defs>
    <style>
      .cls-1 {
        fill: #fff;
      }

      .cls-2 {
        stroke-width: 3.52px;
      }

      .cls-2, .cls-3 {
        fill: none;
        stroke: #fff;
        stroke-linejoin: round;
      }

      .cls-3 {
        stroke-width: 3.46px;
      }
    </style>
  </defs>
  <g id="SvgjsG1000">
    <g>
      <path class="cls-1" d="m33.25,17.78c0,.4-.11.78-.3,1.11s-.48.61-.81.81-.7.3-1.1.3-.78-.11-1.1-.3-.63-.47-.82-.8-.29-.71-.29-1.11.1-.78.29-1.11.47-.62.81-.81.71-.3,1.11-.3.78.11,1.11.3.62.47.82.81.3.71.3,1.11Z"></path>
      <path class="cls-1" d="m53.85,17.78c0,.4-.12.78-.31,1.11s-.47.62-.81.81-.7.29-1.11.29-.78-.1-1.11-.29-.61-.48-.81-.82-.29-.7-.29-1.11.1-.78.29-1.11.48-.61.81-.81.7-.31,1.1-.31.78.11,1.11.3.62.47.81.81.3.71.3,1.11Z"></path>
      <path class="cls-3" d="m80.86,38.23c0,.4-.11.79-.12,1.19s.03.8,0,1.19-.07.79-.12,1.19.01.81-.04,1.2-.15.79-.22,1.18-.14.79-.22,1.17-.2.77-.29,1.16-.34.73-.45,1.11-.03.82-.15,1.2-.33.73-.47,1.1-.35.72-.5,1.09-.33.72-.49,1.09-.3.74-.48,1.09-.24.77-.43,1.12-.41.69-.61,1.03-.54.6-.75.94-.32.74-.54,1.07-.45.66-.68.98-.45.66-.69.97-.56.57-.81.88-.39.72-.65,1.02-.65.49-.92.78-.45.67-.73.95-.58.55-.87.83-.7.41-1,.68-.54.59-.85.84-.56.57-.88.81-.74.33-1.06.57-.53.63-.86.86-.71.37-1.04.59-.65.45-1,.66-.66.45-1.01.65-.77.24-1.13.43-.66.45-1.02.63-.74.29-1.11.45-.67.46-1.04.61-.77.21-1.15.36-.79.16-1.16.29-.71.36-1.09.49-.79.13-1.17.24-.71.43-1.09.53-.8.07-1.19.16-.76.24-1.15.31-.77.2-1.17.26-.79.11-1.18.17-.8-.02-1.2.03-.78.18-1.18.22-.79.09-1.19.11-.8.01-1.2.02-.8-.14-1.2-.14-.8.15-1.2.14-.79-.12-1.19-.14-.79-.08-1.19-.11-.81.04-1.2,0-.78-.17-1.18-.23-.78-.14-1.18-.21-.77-.19-1.16-.27-.81-.03-1.19-.12-.77-.22-1.15-.32-.79-.13-1.17-.24-.75-.29-1.13-.41-.79-.16-1.16-.3-.75-.28-1.12-.43-.73-.33-1.09-.48-.67-.45-1.03-.61-.73-.31-1.09-.49-.72-.34-1.07-.53-.71-.36-1.05-.56-.71-.36-1.05-.57-.64-.47-.98-.68-.66-.45-.98-.67-.77-.3-1.09-.53-.55-.6-.86-.85-.71-.38-1.02-.64-.53-.61-.83-.87-.59-.53-.88-.81-.68-.45-.96-.73-.51-.62-.78-.91-.45-.67-.71-.96-.53-.59-.78-.9-.56-.57-.8-.89-.5-.62-.73-.94-.49-.63-.71-.96-.28-.77-.49-1.11-.43-.66-.63-1.01-.51-.62-.7-.98-.26-.76-.43-1.12-.51-.64-.68-1-.23-.77-.38-1.14-.37-.71-.5-1.09-.16-.79-.28-1.17-.25-.75-.36-1.14-.15-.78-.25-1.17-.34-.74-.42-1.13-.16-.78-.23-1.17-.1-.79-.15-1.19.05-.81,0-1.2-.15-.78-.18-1.18-.18-.79-.2-1.19.1-.8.1-1.2.1-.79.12-1.19-.15-.81-.13-1.2.23-.78.27-1.17,0-.8.06-1.19.06-.8.13-1.19.2-.77.28-1.16.1-.8.19-1.18.33-.74.44-1.12.17-.78.29-1.16.15-.79.29-1.17.3-.74.45-1.11.48-.66.65-1.02.2-.78.38-1.14.41-.68.6-1.03.39-.69.59-1.04.38-.7.59-1.04.51-.61.74-.94.44-.66.67-.99.34-.74.58-1.06.54-.59.79-.9.48-.64.74-.94.56-.56.84-.85.53-.6.81-.88.64-.48.93-.75.56-.56.86-.82.58-.54.89-.79.64-.47.95-.72.58-.55.9-.78.62-.51.95-.73.67-.43,1.01-.65.63-.5.97-.7.74-.32,1.09-.51.67-.43,1.02-.62.76-.26,1.12-.43.73-.32,1.09-.48.71-.36,1.08-.51.72-.33,1.09-.48.7-.4,1.08-.54.81-.09,1.19-.21.71-.39,1.1-.5.81-.06,1.2-.16.73-.36,1.12-.44.78-.15,1.18-.23.8-.03,1.2-.1.79-.09,1.18-.14.77-.22,1.17-.26.8-.04,1.19-.07.79-.05,1.19-.07.8.01,1.19,0,.79-.05,1.19-.05.8-.08,1.2-.07.79.12,1.19.14.8,0,1.19.04.79.07,1.19.11.78.15,1.18.2.78.17,1.17.24.81.01,1.2.09.79.12,1.18.21.74.33,1.12.43.78.16,1.16.27.78.17,1.16.3.73.33,1.1.46.82.09,1.19.23.72.34,1.09.5.72.36,1.08.52.67.43,1.03.61.76.26,1.11.44.71.36,1.06.55.69.39,1.03.6.6.54.94.75.66.43.99.66.74.33,1.06.57.58.55.9.79.69.41,1,.67.61.51.91.78.56.57.85.84.5.62.78.9.65.48.92.77.51.61.78.91.55.58.8.89.45.66.69.97.49.63.72.95.43.67.66,1,.49.63.7.97.36.71.56,1.06.35.71.54,1.06.35.71.53,1.07.49.65.65,1.01.33.73.48,1.1.13.8.27,1.18.45.69.57,1.07.05.82.16,1.2.24.75.34,1.14.2.77.29,1.16.12.78.19,1.18.25.76.31,1.16-.02.8.02,1.2.2.78.22,1.18.08.79.09,1.19,0,.8,0,1.2Z"></path>
      <g>
        <path class="cls-3" d="m71.98,30.47c-.56-.22-.58-.13-1.18-.13s-.6.12-1.2.12-.6.03-1.2.03-.6-.13-1.2-.13-.6.07-1.2.07-.6.01-1.2.01-.6-.06-1.2-.06-.6.09-1.2.09-.6-.08-1.2-.08-.6.07-1.2.07-.6-.11-1.2-.11-.6-.02-1.2-.02-.6.1-1.2.1-.6-.1-1.2-.1-.6.1-1.2.1-.6-.05-1.2-.05-.6.11-1.2.11-.6-.03-1.2-.03-.6-.04-1.2-.04-.6.03-1.2.03-.6-.1-1.2-.1-.6-.05-1.2-.05-.6.07-1.2.07-.6.03-1.2.03-.6-.06-1.2-.06-.6.09-1.2.09-.6-.02-1.2-.02-.6-.08-1.2-.08-.6.05-1.2.05-.6,0-1.2,0-.6.08-1.2.08-.6-.03-1.2-.03-.6,0-1.2,0-.6-.02-1.2-.02-.6-.11-1.2-.11-.6.17-1.2.17-.6-.06-1.21-.06-.6-.06-1.2-.06-.6-.02-1.21-.02-.6.03-1.2.03-.6.1-1.21.1-.6-.03-1.2-.03-.6-.13-1.2-.13-.6.1-1.21.1-.6,0-1.21,0-.6.02-1.21.02-.6-.07-1.21-.07-.6.13-1.21.13-.6-.13-1.21-.13-.61.11-1.21.11-.62-.19-1.2-.01c-.2.06-.14.13-.19.33-.11.4-.15.82-.24,1.23s-.11.83-.19,1.24-.29.8-.35,1.21.06.84.02,1.26-.14.82-.16,1.24,0,.83,0,1.25.05.8.07,1.2-.09.81-.05,1.21.16.79.21,1.19.07.8.14,1.2.27.76.35,1.15.11.8.21,1.18.12.8.24,1.18.34.73.48,1.11.2.78.36,1.15.48.66.65,1.03.26.77.44,1.12.43.68.63,1.03.44.67.65,1,.43.68.65,1,.38.71.63,1.03.55.58.81.89.53.6.8.9.52.6.8.89.47.66.76.94.67.46.97.72.55.58.86.84.61.52.93.76.7.4,1.02.63.62.51.96.72.67.45,1.01.65.67.44,1.02.63.76.28,1.12.46.7.38,1.07.55.76.26,1.13.42.72.35,1.1.48.78.2,1.16.33.76.25,1.14.36.76.25,1.15.34.75.3,1.14.39.79.14,1.19.21.79.12,1.19.18.8.09,1.2.14.8.04,1.2.07.8.1,1.2.11.8.03,1.2.03.8-.16,1.2-.18.81.09,1.21.06.79-.18,1.19-.22.81,0,1.2-.05.8-.12,1.19-.19.77-.26,1.16-.34.79-.12,1.18-.22.8-.11,1.19-.22.77-.24,1.15-.36.74-.32,1.12-.45.74-.3,1.11-.45.73-.34,1.09-.5.79-.2,1.15-.38.71-.38,1.06-.57.65-.49.99-.69.74-.33,1.07-.55.58-.57.91-.8.69-.41,1.01-.65.59-.54.9-.79.67-.44.97-.71.59-.55.88-.82.61-.52.89-.81.46-.67.72-.97.52-.6.78-.91.52-.61.76-.92.58-.57.8-.9.4-.7.61-1.04.33-.74.53-1.08.48-.65.66-1,.43-.68.6-1.04.19-.79.35-1.16.43-.69.56-1.07.2-.78.32-1.16.19-.78.3-1.16.24-.76.33-1.15.1-.79.17-1.19.24-.77.29-1.17.05-.8.08-1.2-.02-.8,0-1.2.04-.79.04-1.2.15-.82.13-1.23-.16-.81-.2-1.22-.03-.82-.09-1.23-.11-.81-.18-1.22-.18-.8-.27-1.2-.11-.8-.21-1.19c0-.28,0-.37-.26-.47Z"></path>
        <path class="cls-3" d="m9.71,40.26c.35.18.74.3,1.11.48s.74.3,1.11.47.7.39,1.08.54.75.28,1.13.42.79.16,1.17.3.75.26,1.13.38.74.31,1.12.43.78.16,1.17.26.75.27,1.14.37.79.13,1.18.22.75.3,1.14.38.8.05,1.2.12.79.11,1.19.18.77.26,1.16.32.8.05,1.2.11.79.1,1.19.15.79.16,1.18.21.8,0,1.2.04.79.16,1.19.19.8,0,1.2.03.79.17,1.19.19.8.07,1.2.09.81-.06,1.21-.05.8.13,1.2.14.8-.08,1.2-.07.8.06,1.2.06.8-.11,1.2-.11.8.02,1.2.01.8.02,1.2.01.8-.06,1.2-.07.81.06,1.21.04.81,0,1.21-.01.8-.12,1.2-.14.8-.09,1.2-.12.81,0,1.21-.04.79-.16,1.19-.2.8-.07,1.2-.11.81,0,1.2-.06.79-.15,1.19-.21.8-.1,1.19-.16.78-.2,1.17-.26.8-.1,1.19-.17.79-.14,1.18-.22.79-.13,1.18-.21.81-.05,1.2-.13.75-.34,1.14-.43.8-.12,1.18-.22.8-.14,1.18-.25.79-.2,1.16-.31.77-.26,1.14-.38.74-.35,1.1-.48c.39-.14.77-.25,1.14-.39.38-.15.8-.18,1.16-.33.38-.16.7-.42,1.05-.59"></path>
        <g>
          <g>
            <path d="m32.73,66.49c0-.6-.06-.6-.06-1.21s.04-.6.04-1.21-.02-.6-.02-1.2.02-.6.02-1.2.05-.6.05-1.2,0-.6,0-1.2-.04-.6-.04-1.21-.02-.6-.02-1.21.04-.6.04-1.21-.01-.6-.01-1.2-.07-.6-.07-1.21,0-.6,0-1.21.05-.6.05-1.21-.04-.6-.04-1.21.04-.6.04-1.21-.04-.6-.04-1.21.07-.6.07-1.21-.07-.6-.07-1.21-.02-.6-.02-1.2.07-.6.07-1.21-.04-.6-.04-1.21,0-.6,0-1.21.04-.6.04-1.21-.05-.6-.05-1.21.05-.6.05-1.21-.04-.61-.04-1.21.06-.6.06-1.21.01-.61.01-1.21-.06-.61-.06-1.21.06-.61.06-1.21"></path>
            <path class="cls-2" d="m32.73,66.49c0-.6-.06-.6-.06-1.21s.04-.6.04-1.21-.02-.6-.02-1.2.02-.6.02-1.2.05-.6.05-1.2,0-.6,0-1.2-.04-.6-.04-1.21-.02-.6-.02-1.21.04-.6.04-1.21-.01-.6-.01-1.2-.07-.6-.07-1.21,0-.6,0-1.21.05-.6.05-1.21-.04-.6-.04-1.21.04-.6.04-1.21-.04-.6-.04-1.21.07-.6.07-1.21-.07-.6-.07-1.21-.02-.6-.02-1.2.07-.6.07-1.21-.04-.6-.04-1.21,0-.6,0-1.21.04-.6.04-1.21-.05-.6-.05-1.21.05-.6.05-1.21-.04-.61-.04-1.21.06-.6.06-1.21.01-.61.01-1.21-.06-.61-.06-1.21.06-.61.06-1.21"></path>
          </g>
          <g>
            <path d="m49.89,66.49c0-.6.1-.6.1-1.21s-.1-.6-.1-1.21.08-.6.08-1.2-.02-.6-.02-1.2-.03-.6-.03-1.2.04-.6.04-1.2-.06-.6-.06-1.21.04-.6.04-1.21-.02-.6-.02-1.21.02-.6.02-1.2.05-.6.05-1.21,0-.6,0-1.21-.04-.6-.04-1.21-.02-.6-.02-1.21.04-.6.04-1.21-.01-.6-.01-1.21-.07-.6-.07-1.21,0-.6,0-1.21.05-.6.05-1.2-.04-.6-.04-1.21.04-.6.04-1.21-.04-.6-.04-1.21.07-.6.07-1.21-.07-.6-.07-1.21-.02-.6-.02-1.21.07-.61.07-1.21-.04-.6-.04-1.21,0-.61,0-1.21.04-.61.04-1.21-.05-.61-.05-1.21"></path>
            <path class="cls-2" d="m49.89,66.49c0-.6.1-.6.1-1.21s-.1-.6-.1-1.21.08-.6.08-1.2-.02-.6-.02-1.2-.03-.6-.03-1.2.04-.6.04-1.2-.06-.6-.06-1.21.04-.6.04-1.21-.02-.6-.02-1.21.02-.6.02-1.2.05-.6.05-1.21,0-.6,0-1.21-.04-.6-.04-1.21-.02-.6-.02-1.21.04-.6.04-1.21-.01-.6-.01-1.21-.07-.6-.07-1.21,0-.6,0-1.21.05-.6.05-1.2-.04-.6-.04-1.21.04-.6.04-1.21-.04-.6-.04-1.21.07-.6.07-1.21-.07-.6-.07-1.21-.02-.6-.02-1.21.07-.61.07-1.21-.04-.6-.04-1.21,0-.61,0-1.21.04-.61.04-1.21-.05-.61-.05-1.21"></path>
          </g>
        </g>
        <g>
          <g>
            <path d="m19.64,59.36c0-.6-.01-.6-.01-1.21s0-.61,0-1.21-.06-.6-.06-1.21.07-.6.07-1.21-.07-.6-.07-1.21.08-.61.08-1.21-.08-.61-.08-1.21.06-.6.06-1.21-.01-.61-.01-1.21-.02-.61-.02-1.21.04-.61.04-1.21-.05-.61-.05-1.21.03-.6.03-1.21-.01-.61-.01-1.21.01-.6.01-1.21.04-.6.04-1.21,0-.61,0-1.21-.03-.61-.03-1.21-.02-.61-.02-1.21.03-.61.03-1.21,0-.61,0-1.21-.05-.61-.05-1.21,0-.61,0-1.22.04-.61.04-1.22"></path>
            <path class="cls-3" d="m19.64,59.36c0-.6-.01-.6-.01-1.21s0-.61,0-1.21-.06-.6-.06-1.21.07-.6.07-1.21-.07-.6-.07-1.21.08-.61.08-1.21-.08-.61-.08-1.21.06-.6.06-1.21-.01-.61-.01-1.21-.02-.61-.02-1.21.04-.61.04-1.21-.05-.61-.05-1.21.03-.6.03-1.21-.01-.61-.01-1.21.01-.6.01-1.21.04-.6.04-1.21,0-.61,0-1.21-.03-.61-.03-1.21-.02-.61-.02-1.21.03-.61.03-1.21,0-.61,0-1.21-.05-.61-.05-1.21,0-.61,0-1.22.04-.61.04-1.22"></path>
          </g>
          <g>
            <path d="m63.02,59.36c0-.6,0-.6,0-1.21s.05-.61.05-1.21-.04-.6-.04-1.21,0-.6,0-1.21.03-.6.03-1.21-.01-.61-.01-1.21,0-.61,0-1.21-.06-.6-.06-1.21.07-.61.07-1.21-.07-.61-.07-1.21.08-.61.08-1.21-.08-.61-.08-1.21.06-.6.06-1.21-.01-.61-.01-1.21-.02-.6-.02-1.21.04-.6.04-1.21-.05-.61-.05-1.21.03-.61.03-1.21-.01-.61-.01-1.21.01-.61.01-1.21.04-.61.04-1.21,0-.61,0-1.21-.03-.61-.03-1.22-.02-.61-.02-1.22"></path>
            <path class="cls-3" d="m63.02,59.36c0-.6,0-.6,0-1.21s.05-.61.05-1.21-.04-.6-.04-1.21,0-.6,0-1.21.03-.6.03-1.21-.01-.61-.01-1.21,0-.61,0-1.21-.06-.6-.06-1.21.07-.61.07-1.21-.07-.61-.07-1.21.08-.61.08-1.21-.08-.61-.08-1.21.06-.6.06-1.21-.01-.61-.01-1.21-.02-.6-.02-1.21.04-.6.04-1.21-.05-.61-.05-1.21.03-.61.03-1.21-.01-.61-.01-1.21.01-.61.01-1.21.04-.61.04-1.21,0-.61,0-1.21-.03-.61-.03-1.22-.02-.61-.02-1.22"></path>
          </g>
        </g>
      </g>
    </g>
  </g>
</svg><style>@media (prefers-color-scheme: light) { :root { filter: contrast(1) brightness(0.5); } }
</style></svg>