<?xml version="1.0" encoding="UTF-8"?>
<svg id="Layer_2" data-name="Layer 2" xmlns="http://www.w3.org/2000/svg" viewBox="0 0 488.65 223.63">
  <defs>
    <style>
      .cls-1 {
        fill: #fff;
      }
    </style>
  </defs>
  <g id="txt">
    <g>
      <path class="cls-1" d="m70.96,60.28c.21.16.34.24.44.34.07.08.11.19.17.3-.82.02-1.62-.95-1.35-1.62.06-.16.26-.29.43-.38.17-.09.42-.05.57-.15.32-.22.5-.69,1.01-.53.34.11.69.22,1.03.35.04-.64.07-1.29.07-1.95,0-.72-.02-1.42-.07-2.12-.29.13-.58.26-.9.4-.32-.89.34-1.24.79-1.66-1.14-10.7-8.01-18.26-23.46-20.98l-17.52-3.12c-4.68-.84-6.24-1.92-6.24-4.44,0-3,2.16-4.44,10.68-4.44,10.08,0,12.36,1.92,12.36,6.6v1.44h22.2v-2.04C71.17,11.28,60.49,0,38.05,0c-5.29,0-9.94.57-13.97,1.61-.05.06-.1.12-.15.19-.03-.05-.06-.08-.09-.12C10,5.31,3.49,14.54,3.49,25.56c0,12.48,6.72,21.12,23.04,23.64l2.37.37c.36-.09.72-.17,1.08-.27.6-.16,1.06,0,1.28.6,0,.01.01.03.02.04l12.77,2.01c5.52.84,6.72,2.04,6.72,5.76,0,3.48-1.8,4.8-10.32,4.8-2.66,0-4.8-.08-6.53-.3.08.19.17.38.27.59-.46.34-.52,1.24-1.52.83.3-.52.58-1,.86-1.48-4.36-.63-5.9-2.26-6.21-5.92-.11-.29-.23-.6-.38-.97.12-.07.22-.14.32-.22,0-.15-.01-.3-.01-.46v-.96H5.05v1.56c0,16.8,11.52,27.6,34.56,27.6s32.33-10.51,33.58-23.3c-.76,0-1.45.42-2.22.78ZM15.3,35.14c-.04-.08-.08-.16-.12-.25.19-.11.39-.21.58-.32.05.09.1.19.16.28-.21.09-.41.19-.62.28Zm9.92,12.09c-1.06-.73-1.06-.83.07-1.59-.03.63-.05,1.1-.07,1.59Zm2.34-1.88q.2-.62.78-.9c-.06.56-.52.64-.78.9Zm2.69-13.74c.26-.78.79-.73,1.42-.49q-.71.9-1.42.49Zm.36,17.25c-.04-.66-.28-1.23.41-1.38.21-.04.68.25.71.44.12.75-.5.76-1.12.94Zm1.97-17.69s-.17-.1-.16-.13c.02-.09.09-.17.17-.31.11.13.18.21.24.28-.08.05-.16.13-.25.15Zm10.19,20.52c-.07-.06-.12-.14-.17-.22.07-.02.14-.04.21-.06.04.05.09.11.13.16-.06.04-.15.13-.17.12Zm-33.93,9.66s0,.02-.01.02c0,0-.02,0-.02-.01-.2.17-.39.33-.68.57-.17-.36-.29-.63-.53-1.14.55.26.88.41,1.2.57,0,0,0,0,0,0l.02.02s-.02-.02-.02-.02c.01,0,.02,0,.03,0,.16-.29.31-.59.59-1.11.13.8-.06,1.08-.59,1.11Zm18.53,8.16c-.08,0-.15-.13-.23-.21.08-.07.15-.2.24-.21.07,0,.16.11.29.2-.13.1-.21.21-.3.21Zm1.03-.99s-.1-.08-.15-.12c.07-.07.14-.15.23-.21.02-.01.1.08.18.16-.09.07-.17.14-.26.18Zm33.21-30.69c.06.02.1.09.15.14-.07.02-.14.07-.2.06-.06-.01-.09-.09-.14-.14.06-.02.13-.07.19-.05Zm-2.68,2.87c.14-.25.56-.34.93-.55.12.59.21,1.01.27,1.31-.71.34-1.3.62-1.94.93-.28-.84.46-1.19.74-1.69Zm3.12,2.88c-.64.04-1.03.39-1.38.88-.41.59-.86,1.15-1.52,1.64.07-.55.14-1.09.21-1.64,0,0-.01,0-.02.01,0,0,0-.02,0-.03-.57-.12-.57-.13-.23-.77.1.32.16.55.23.77.01,0,.02,0,.03,0,0,0,0,0,0,.01.81-.32.46-1.1.66-1.69.47-.4.92-.57,1.5-.1.32.25.77.35,1.34.59-.35.15-.58.31-.81.32Zm8.39,11.16c.17-.05.43.21.8.42-.33.29-.52.59-.71.6-.2,0-.41-.28-.61-.44.17-.21.31-.52.52-.58Zm-1.88,6.12c-.09,0-.18.01-.28.02-.02-.55-.05-1.09-.07-1.64l.31-.04c.29.55.07,1.11.04,1.66Zm.69-2.3c-.34-.75-.05-1.25.63-1.72.32.84-.66,1.1-.63,1.72Z"/>
      <path class="cls-1" d="m87.77,1.31s-.09-.05-.12-.11h-13.84v20.28h24.72v60.12h22.56V21.48h24.72V1.2h-57.79c-.09.06-.18.12-.24.11Zm46.01,14.71c-.09-.15-.2-.26-.19-.35,0-.08.16-.2.24-.2.09,0,.21.12.24.22.02.05-.12.15-.28.33Zm-.46-6.23c.05-.09.2-.21.27-.19.26.06.51.17.87.3-.27.43-.45.73-.66,1.06-.51-.3-.79-.62-.48-1.17Zm-2.2-.07c.13.1.22.17.31.23-.1.09-.19.21-.31.26-.03.01-.19-.14-.21-.24-.01-.06.12-.15.21-.26Zm-11.22,7.72c.1,0,.2.04.4.09-.17.11-.25.21-.33.21-.08,0-.16-.1-.24-.16.06-.05.11-.14.17-.15Zm-1.76,63.77c.06.04.11.07.17.11-.05.04-.1.09-.16.12-.02,0-.09-.04-.09-.05.02-.06.05-.12.08-.18Zm-1.08-8.53c-.61.35-1.23.7-1.85,1.05-.23-.95-.17-.99,1.85-1.05Zm-4.8-23.5c.08.05.14.14.25.26-.16.04-.28.12-.33.08-.06-.04-.08-.17-.09-.27,0-.02.14-.1.17-.08ZM99.42,3.57c-.31.45-.59.67-1.01.32-.09-.07-.12-.35-.06-.43.38-.42.68-.11,1.07.1Z"/>
      <path class="cls-1" d="m406.93,61.32h-42.36v-9.96h40.56v-20.16h-7.25c.02.1.04.21.07.33-.21-.1-.32-.21-.39-.33h-6.96c.13.52.06.62-.27,1.03.03-.38.05-.71.07-1.03h-25.83v-1.9c-.05.09-.13.2-.2.33-.2-.21-.4-.33-.4-.45,0-.14.18-.28.28-.42.1.08.23.14.32.22v-7.5h42.36v-4.71s-.01.01-.02.02c0-.02.01-.05.02-.07V1.2h-48.31c.07.14.08.32,0,.58-.32-.04-.65-.07-1.17-.13.07-.17.12-.31.18-.45h-4.46s0,.02-.01.03c-.22.2-.5.33-.76.48,0,.02-.01.03-.02.04,0,0-.02,0-.02,0,0,.11,0,.24-.05.33-.05.08-.18.1-.28.15,0-.13-.04-.29.01-.38.04-.07.2-.07.31-.1,0,0,0-.02,0-.02.01,0,.03-.02.04-.02.08-.17.17-.34.25-.51h-10.12c.45.51.41.55-.26,1.03.05-.34.08-.61.14-1.03h-.39v71.6c.17.08.34.18.5.27-.05.09-.1.17-.15.26-.12-.06-.23-.12-.35-.18v8.45h64.92v-20.28Zm-11.34-21.19c.06.01.11.03.17.04-.02.15-.04.3-.06.46-.08-.02-.17-.03-.25-.05.05-.15.09-.3.14-.45Zm-.41-1.26c.1.12.22.21.22.29,0,.08-.12.16-.19.24-.08-.08-.21-.14-.23-.23-.02-.07.11-.17.2-.29Zm-21.77,9.65q.77-.33,1.01.63c-.42-.26-.71-.45-1.01-.63Zm.07-2.11c0-.08.11-.16.19-.28.1.12.24.24.22.28-.05.11-.18.19-.27.28-.05-.1-.14-.19-.14-.29Zm14.88-12.05c0,.08.02.15.03.23-.22.03-.43.07-.65.1-.01-.09-.02-.19-.03-.28.22-.02.44-.03.66-.05Zm.44,9.07c.32.38.68.79,1.1,1.27v1.36c-.22-.09-.51-.12-.57-.25-.76-1.66-.77-1.67-2.31-2.07.59-.1,1.17-.21,1.78-.31Zm-6.17-4.2c.07,0,.14.14.23.24-.1.09-.18.17-.25.24-.08-.1-.15-.21-.23-.31.09-.06.17-.18.26-.17Zm-4.54,4.25h.21c.08.28.15.57.23.85.12-.21.25-.42.42-.71.24.52.07.73-.28.84-.05-.04-.09-.09-.14-.13.05.04.09.09.14.13-.21.1-.42.19-.81.37.1-.56.17-.96.24-1.36Zm-1.61,3.65c.19-.58-.42-1.6.93-1.64-.14.76-.26,1.42-.38,2.06-.45.11-.67-.06-.55-.42Zm-.49-10.5c.1.05.29.11.28.14-.03.17-.1.33-.16.49-.09-.03-.18-.07-.27-.1.05-.17.1-.35.14-.52Zm-2.65-2.56c.54.1,1.08.19,1.69.3v.7c-.63-.27-1.2-.51-1.77-.76l.08-.24Zm-5.52,16.17c.13.15.26.31.39.46-.09.07-.18.13-.27.2-.1-.19-.2-.37-.29-.56.06-.03.11-.07.17-.1Zm-2.1-36.85c-.29-.13-.58-.24-1.15-.48,1.56-.27,2.04-.03,2,.9-.31-.15-.57-.3-.85-.42Zm1.25,3.85c.55-.57.56-.57,1.47.43-.48-.14-.97-.29-1.47-.43Zm25.76.48c.05.05.16.11.15.15-.02.1-.09.18-.15.28-.09-.08-.19-.16-.18-.18.05-.09.12-.17.19-.26Zm-8.77-1.65q-.08.99-.79,1.05c0-.51.05-.93.79-1.05Zm-7.91-11.52c.51-.02,1.05-.14,1.37.44-.05.11-.1.22-.15.33-.44-.17-.88-.33-1.32-.5.03-.09.06-.18.1-.27Zm-3.53,1.51c.24.15.47.3.71.45-.08.1-.15.21-.23.31-.22-.17-.43-.34-.65-.51.06-.08.11-.17.17-.25Zm-.11,9.06q.23.72-.64,1.04c.29-.47.45-.73.64-1.04Zm-2.17-12.19c-.1.29-.17.53-.25.76,0,0,0,.01.01.02,0,.02,0,.03,0,.05.3.49.59.97.92,1.52-.48.11-.8-.02-.89-.5-.06-.33-.03-.68-.04-1.02,0-.01-.02-.02-.02-.04h0s0-.02.01-.03c-.38-.56-.37-.56.25-.76Zm-5.34-.49c.03.06.09.14.07.18-.02.05-.11.07-.17.11-.04-.05-.08-.11-.12-.16.07-.04.15-.09.22-.13Zm-.91,1.83c.54.66.95,1.24,1.44,1.74.5.52,1.1.93,1.6,1.45.41.43.84.9,1.04,1.44.3.82.83,1.27,1.6,1.53.3.1.67.18.53.76-.26-.04-.46-.1-.66-.1-.9.02-1.46-.28-1.79-1.23-.23-.64-.87-1.14-1.33-1.71-.25.12-.46.23-.66.32-.09-.08-.2-.14-.2-.19.07-1.07-.53-1.84-1.16-2.6-.47-.57-.47-.58-.41-1.44Zm-1.3,6.65c.07.67.56,1.3.93,2.09-.13.17-.39.51-.79,1.03-.08-1.15-.45-1.98-1.23-2.58-.11-.08-.17-.27-.18-.42-.05-.62-.07-1.24-.12-2.05.74.53,1.29.97,1.39,1.93Zm-1.6,12.69c.21.07.43.15.85.29-.36.12-.52.21-.68.21-.11,0-.21-.16-.32-.25.05-.08.1-.16.14-.25Zm-2.45-6.53c-.27-.51-.45-.85-.66-1.25.96.28,1.01.36.66,1.25Zm-.93,2.05c.89.6,1.71,1.18,2.56,1.71.56.35.77.79.55,1.51-.75-1.57-2.24-2-3.81-2.68.31-.25.53-.41.69-.54Zm-.13,18.45c-.34.14-.43.18-.52.22-.04-.1-.09-.19-.1-.29,0-.02.12-.1.18-.09.1.01.2.07.45.17Zm-3.14-32.28c.1-.02.21.07.58.23-.38.18-.5.27-.59.26-.08-.01-.19-.16-.19-.24,0-.09.11-.23.2-.24Zm1.43,5.94c.02.08.04.15.06.23-.57.24-1.14.48-1.77.75-.06-.17-.13-.34-.2-.54.69-.16,1.3-.3,1.91-.44Zm-3.56,24.33c.05.06.1.11.14.17-.16.13-.32.25-.47.38-.04-.05-.09-.11-.13-.16.15-.13.31-.26.46-.39Zm-.27,25.04c.86.56.26,1.06.13,1.56-.1.37-.3.58-.82.33.49-.53-.39-1.49.69-1.89Zm-.6-14.14c.08-.06.16-.15.18-.14.08.04.15.12.22.19-.05.05-.12.14-.15.13-.09-.04-.16-.11-.25-.18Zm.84,9.46c-.21-.27-.36-.4-.41-.55-.02-.07.16-.2.25-.3.1.11.25.2.3.32.03.1-.06.24-.14.53Zm-.31-23.45c-.08.08-.15.16-.26.27-.1-.11-.17-.18-.24-.26.09-.07.17-.18.27-.19.07,0,.15.11.23.18Zm-.64-22.97c.08,0,.17.1.31.19-.14.1-.23.2-.31.2-.08,0-.16-.12-.24-.19.08-.07.15-.19.24-.2Zm-1.07,35.67c.08.01.15.14.32.33-.12.06-.24.16-.31.14-.1-.04-.19-.17-.23-.28-.01-.03.15-.19.22-.19Zm-8.2,3.72c.45-.25.75-.42,1.05-.59.05.1.1.2.16.3-.26.26-.47.66-1.21.28Zm1.22,5.58s-.01-.14-.02-.21h.51c0,.06,0,.13,0,.19-.16.01-.33.02-.49.02Zm.62-9.08c-.1-.02-.18-.2-.24-.32-.01-.02.16-.18.24-.17.12,0,.23.1.48.22-.25.15-.38.29-.48.27Zm-.74-14.7c.02-.95,1.21-.66,1.15-1.55.11.07.22.15.33.22.01.23.03.47.04.69-.51.21-.97.41-1.51.64Zm1.92,46.43c-.08-.08-.16-.15-.22-.23,0-.01.11-.16.14-.15.09.03.17.11.25.17-.08.1-.13.16-.18.21Zm.07-63.56c.43-.48.81-.89,1.22-1.35,1,.19.48.97.58,1.62-.48.16-.86.29-1.32.45-.16-.24-.33-.49-.49-.72Zm1.36,51.81c-.06-.14-.1-.22-.14-.31.09-.04.19-.09.28-.1.04,0,.13.14.12.16-.06.08-.14.14-.26.25Zm.6,7.44s-.15,0-.23-.01c.01-.19.02-.39.04-.58.08.01.16.02.24.03-.01.19-.02.37-.05.56Zm.31-36.96q.69.08.95,1.09c-.3-.34-.59-.68-.95-1.09Zm1.3,38.45c-.09-.1-.16-.23-.23-.35.1-.04.22-.12.31-.09.08.02.13.15.22.27-.13.08-.28.19-.3.17Zm.27-72.71c-.07-.06-.07-.21-.1-.32.1-.02.24-.1.3-.06.08.05.1.19.17.35-.17.02-.31.07-.37.02Zm.73,66.64c.35.12.66.22.96.32q-.89.53-.96-.32Zm.92,11.69c.46-.33.24-1.23,1.24-.87-.22.52-.23,1.17-1.24.87Zm.64-11.28c.05-.07.1-.13.15-.2.35.24.71.48,1.06.73.08.06.12.18.24.37-.86.13-1.13-.43-1.46-.91Zm1.2-17c-.09-.11-.19-.21-.24-.34-.01-.03.17-.2.23-.19.11.02.2.14.34.25-.16.13-.24.2-.33.27Zm.72-46.71c.07.26.15.51.2.78,0,0-.29.1-.29.09-.1-.23-.19-.46-.27-.7.12-.05.24-.11.36-.16Zm-.03,11.8c-.09-.05-.18-.11-.26-.16.12-.21.24-.43.36-.64l.34.21c-.15.2-.29.4-.44.6Zm1.02,60.15c-.08-.12-.18-.24-.21-.37-.01-.06.12-.16.24-.32.1.2.2.33.2.46,0,.07-.15.15-.23.23Zm-.45-30.84l.1-.5c.09.02.19.05.28.07l-.07.49c-.11-.02-.21-.04-.32-.06Zm.38-31.11c-.3-.38-.57-.72-.93-1.18.6-.04,1.06-.08,1.6-.12.05.56.03,1-.67,1.3Zm1.54,4.56c.28.16.51.29.77.43q-.58.33-.77-.43Zm1.09-5.1c-.13-.14-.26-.28-.39-.42.09-.06.18-.12.27-.18.1.16.2.32.29.48l-.17.13Zm.03-1.85c.06-.07.12-.14.18-.21.04.06.08.12.12.18-.04.05-.08.14-.14.15-.04,0-.1-.08-.16-.12Zm.63,55.4c-.09-.02-.18-.05-.26-.07-.07-.36-.14-.71-.17-.92.41-.7.76-1.3,1.19-2.03.12.22.37.47.32.61-.32.82-.7,1.61-1.07,2.41Zm1.05-14.81c-.07-.18-.13-.36-.2-.54.09-.02.18-.05.27-.07.04.18.08.37.13.55-.07.02-.13.04-.2.06Zm.79-26.24c-.26-.63-.06-.89.46-.9.14,0,.4.2.4.3-.01.63-.54.38-.86.59Zm1.06,32.2c-.1-.07-.17-.18-.25-.28.09-.06.19-.16.28-.15.07,0,.14.13.24.23-.11.09-.24.22-.26.2Zm.57,8.42c-.08-.07-.15-.13-.23-.2.18-.22.35-.45.53-.67.07.05.14.1.2.15-.17.24-.33.48-.5.72Zm1.54-19.38c-.25.38-.37.86-.54,1.29-.07-.02-.15-.04-.22-.05-.08-.63-.16-1.26-.24-1.95.62-.13,1.26-.27,2.12-.45-.46.46-.85.76-1.11,1.16Zm.78-30.65s-.04-.03-.05-.05c0,0,.01-.01.01-.01,0,0-.01.01-.01.01-.25-.33-.49-.66-.74-1,0-.01-.02-.02-.02-.03-.17-.08-.35-.16-.52-.25.06-.07.12-.15.18-.22.11.16.23.31.34.47.01,0,.03.01.04.02h-.01s.01,0,.01,0c.25.33.49.67.74,1,.02.02.02.04.04.06.42.39.84.77,1.33,1.21-.12.25-.27.56-.48.99-.79-.59-.39-1.58-.85-2.2Zm3.11,56.73c-.08-.04-.17-.16-.17-.26,0-.05.17-.18.22-.16.09.03.15.15.26.29-.14.06-.25.16-.31.13Zm1.6-4.82v-.62c.06,0,.13,0,.19,0,.01.2.02.4.02.6,0,0-.14.01-.22.02Zm8.63-4.37c-.04-.09-.07-.19-.11-.28.07-.02.16-.07.2-.05.05.03.06.13.08.2-.06.04-.11.09-.17.13Zm5.82,2.75c-.09,0-.19-.04-.28-.06.06-.08.11-.16.19-.22.02-.02.11.06.18.1-.03.06-.05.18-.08.18Zm6.05,2.38s-.01,0-.02,0c-.02.07-.02.15-.06.2-.09.11-.19.21-.3.29-.02.01-.11-.08-.17-.12.11-.12.21-.26.33-.36.04-.04.13-.01.21-.01,0,0,0-.01,0-.02l.02.02s-.02-.02-.02-.02c.01,0,.02-.01.03-.02.05-.13.09-.27.17-.39.05-.07.17-.08.36.03-.18.12-.35.24-.53.36,0,.01,0,.03-.01.04Zm6.27-5.22c-.28-.09-.52-.17-.95-.31.36-.46.07-1.17.95-1.08v1.39Zm2.69,11.98c-.09-.11-.23-.21-.21-.26.04-.12.15-.21.23-.31.06.08.18.17.18.25,0,.09-.11.18-.19.32Zm4.04-12.18c.02-.07.15-.1.24-.13.02,0,.11.13.09.17-.03.09-.11.16-.22.3-.06-.16-.14-.26-.12-.33Zm.42,13.69c-.08-.07-.15-.14-.23-.21.06-.04.12-.12.17-.11.06,0,.11.09.17.14-.04.06-.08.13-.12.19Zm.57,2.59s-.2,0-.2-.02c-.05-.21-.08-.42-.11-.64.14,0,.27,0,.41,0-.03.22-.05.44-.09.65Zm1.89-6.5c-.03-.06-.05-.13-.07-.2.03,0,.07-.01.1-.02.02.07.05.14.07.2-.04,0-.1.02-.1.02Zm2.04-12.43c-.14-.09-.29-.14-.3-.21-.01-.08.1-.18.16-.27.09.06.21.11.27.2.03.04-.07.16-.12.28Z"/>
      <g>
        <path class="cls-1" d="m185.34,63.43c.17-.42.25-.62.33-.82-.44-.04-.46.2-.33.82Z"/>
        <path class="cls-1" d="m218.89.01c.23.17.49.32.8.43.3.1.67.18.53.76-.26-.04-.46-.1-.66-.1-.85.02-1.4-.26-1.74-1.09-1.81.01-3.56.11-5.26.28.08.19.13.39.16.63.07.67.56,1.3.93,2.09-.13.17-.39.51-.79,1.03-.08-1.15-.45-1.98-1.23-2.58-.11-.08-.17-.27-.18-.42-.02-.21-.03-.42-.04-.63-1.9.23-3.71.57-5.45,1,0,.02.01.04.02.06-.57.24-1.14.48-1.77.75-.04-.1-.07-.2-.11-.3-6.99,2.07-12.64,5.75-16.85,10.8-.02.17-.1.3-.28.36-5.74,7.1-8.73,16.78-8.73,28.33,0,25.08,14.04,41.4,39.96,41.4s37.8-13.2,37.8-31.92v-2.76h-24.12v.36c0,9.24-3,12.36-14.16,12.36s-15.2-2.74-15.24-19.22c-.08-.1-.17-.19-.22-.3-.01-.03.15-.18.22-.18.04-16.44,3.78-19.17,15.24-19.17s14.16,3.12,14.16,12.36v.36h6.91c-.35-.55-.69-.66-1.74-.93.59-.1,1.17-.21,1.78-.31.32.37.66.77,1.07,1.24h16.1v-2.76C255.97,13.38,243.84.26,218.89.01Zm-38.16,37.61c.18-.1.37-.21.55-.31.03.06.1.17.09.18-.16.12-.33.23-.5.34-.05-.07-.09-.14-.14-.21Zm.61,9.95c-.13-.03-.27-.05-.4-.08.08-.22.15-.44.24-.65,0-.02.2.02.2.03,0,.23-.02.46-.04.69Zm1.76-13.87c-.32-.56-.58-1.02-.92-1.62.95.18,1.1.45.92,1.62Zm1.18,16.61c.43.39.89.6.52,1.23-.26.45-.53.43-.92.07.12-.37.24-.77.4-1.29Zm1.08,13.57c-.36-.2-.75-.4-1.26-.68.36-.51.68-.97,1.16-1.65.22.51.34.78.45,1.05,0,0,0,0,0,0,.4.67.39.68-.34,1.28Zm.69-23.63c-.03-.32-.05-.59-.08-.91.31-.03.58-.05.9-.09.06.64-.25.86-.82,1Zm2.84,10.66c.09,0,.19.06.34.12-.12.13-.2.2-.27.28-.07-.07-.16-.14-.2-.23-.02-.03.08-.17.12-.17Zm-.94-12.52c-.08-.15-.19-.26-.16-.33.04-.11.16-.19.25-.28.06.08.18.16.18.24,0,.08-.11.16-.26.36Zm.3-18.92s-.1-.09-.15-.14c.05-.05.1-.11.16-.16.05.05.1.1.15.16-.05.05-.1.14-.16.14Zm.41,38.86c-.1-.26-.19-.47-.31-.79.48.06.83.1,1.19.14v.33c-.27.1-.54.2-.88.32Zm63.02-3.74s.11.13.09.17c-.03.09-.11.16-.22.3-.06-.16-.14-.26-.12-.33.02-.07.15-.1.24-.13Zm-3.75-5.2c.08.06.1.19.16.34-.14.02-.28.07-.33.03-.07-.06-.1-.2-.09-.3,0-.04.21-.11.26-.07Zm-.52,16.94c.06.08.18.17.18.25,0,.09-.11.18-.19.32-.09-.11-.23-.21-.21-.26.04-.12.15-.21.23-.31Zm-2.7-12.8v1.39c-.28-.09-.52-.17-.95-.31.36-.46.07-1.17.95-1.08Zm-3.92-4.44c.04.08.07.17.11.25-.07.01-.15.05-.2.03-.05-.02-.07-.12-.1-.18.06-.03.13-.07.19-.1Zm-2.46-.18c.09-.05.22-.04.34-.05,0,0,0-.01,0-.02,0,0,.02,0,.03,0,.11-.19.22-.39.39-.7.25.29.42.5.6.7-.04.08-.08.16-.11.23-.29-.08-.58-.16-.88-.23,0,0,0,0,0,.01l-.02-.02s.02.02.02.02c0,0-.01,0-.02,0-.02.11-.02.25-.08.33-.08.12-.21.22-.34.26-.04.02-.23-.2-.22-.22.07-.12.18-.25.3-.32Zm-.12,11.24s.13-.01.21-.01c0,0,0-.01,0-.02l.02.02s-.02-.02-.02-.02c.01,0,.02-.01.03-.02.05-.13.09-.27.17-.39.05-.07.17-.08.36.03-.18.12-.35.24-.53.36,0,.01,0,.03-.01.04,0,0-.01,0-.02,0-.02.07-.02.15-.06.2-.09.11-.19.21-.3.29-.02.01-.11-.08-.17-.12.11-.12.21-.26.33-.36Zm-5.92-2.66s.11.06.18.1c-.03.06-.05.18-.08.18-.09,0-.19-.04-.28-.06.06-.08.11-.16.19-.22Zm-.06,14.25c.14.02.26.13.46.23-.17.12-.28.25-.34.24-.13-.03-.23-.15-.34-.24.08-.08.16-.24.22-.23Zm-14.31,3.16q.05.63-.42.96c.12-.27.24-.54.42-.96Zm-1.54-11.11c.09.03.15.15.26.29-.14.06-.25.16-.31.13-.08-.04-.17-.16-.17-.26,0-.05.17-.18.22-.16Zm-7.7-56.74c-.27-.51-.45-.85-.66-1.25.96.28,1.01.36.66,1.25Zm-6.9,15.22c.07,0,.15.11.23.18-.08.08-.15.16-.26.27-.1-.11-.17-.18-.24-.26.09-.07.17-.18.27-.19Zm-.12,14.03c.08.04.15.12.22.19-.05.05-.12.14-.15.13-.09-.04-.16-.11-.25-.18.08-.06.16-.15.18-.14Zm-1.36-1.16c.08.01.15.14.32.33-.12.06-.24.16-.31.14-.1-.04-.19-.17-.23-.28-.01-.03.15-.19.22-.19Zm-7.92,28.16c-.18-.09-.35-.19-.53-.28.05-.09.15-.27.16-.26.18.08.35.18.53.28-.05.09-.1.17-.15.26Zm-.27-24.43c.45-.25.75-.42,1.05-.59.05.1.1.2.16.3-.26.26-.47.66-1.21.28Zm1.22,5.58s-.01-.14-.02-.21h.51c0,.06,0,.13,0,.19-.16.01-.33.02-.49.02Zm.62-9.08c-.1-.02-.18-.2-.24-.32-.01-.02.16-.18.24-.17.12,0,.23.1.48.22-.25.15-.38.29-.48.27Zm-.74-14.7c.02-.95,1.21-.66,1.15-1.55.11.07.22.15.33.22.01.23.03.47.04.69-.51.21-.97.41-1.51.64Zm1.92,46.43c-.08-.08-.16-.15-.22-.23,0-.01.11-.16.14-.15.09.03.17.11.25.17-.08.1-.13.16-.18.21Zm1.42-11.75c-.06-.14-.1-.22-.14-.31.09-.04.19-.09.28-.1.04,0,.13.14.12.16-.06.08-.14.14-.26.25Zm.6,7.44s-.15,0-.23-.01c.01-.19.02-.39.04-.58.08.01.16.02.24.03-.01.19-.02.37-.05.56Zm.31-36.96q.69.08.95,1.09c-.3-.34-.59-.68-.95-1.09Zm1.3,38.45c-.09-.1-.16-.23-.23-.35.1-.04.22-.12.31-.09.08.02.13.15.22.27-.13.08-.28.19-.3.17Zm1-6.08c.35.12.66.22.96.32q-.89.53-.96-.32Zm.92,11.69c.46-.33.24-1.23,1.24-.87-.22.52-.23,1.17-1.24.87Zm3.58-3.72c.1.2.2.33.2.46,0,.07-.15.15-.23.23-.08-.12-.18-.24-.21-.37-.01-.06.12-.16.24-.32Zm-2.94-7.57c.05-.07.1-.13.15-.2.35.24.71.48,1.06.73.08.06.12.18.24.37-.86.13-1.13-.43-1.46-.91Zm.91-6.48c-.1.37-.3.58-.82.33.49-.53-.39-1.49.69-1.89.86.56.26,1.06.13,1.56Zm.25-6.77c.03.1-.06.24-.14.53-.21-.27-.36-.4-.41-.55-.02-.07.16-.2.25-.3.1.11.25.2.3.32Zm-.44-19.28c-.04-.05-.09-.11-.13-.16.15-.13.31-.26.46-.39.05.06.1.11.14.17-.16.13-.32.25-.47.38Zm1.16-19.36c-.09-.05-.18-.11-.26-.16.12-.21.24-.43.36-.64l.34.21c-.15.2-.29.4-.44.6Zm.96-1.79c-.3-.38-.57-.72-.93-1.18.6-.04,1.06-.08,1.6-.12.05.56.03,1-.67,1.3Zm1.54,4.56c.28.16.51.29.77.43q-.58.33-.77-.43Zm1.09-5.1c-.13-.14-.26-.28-.39-.42.09-.06.18-.12.27-.18.1.16.2.32.29.48l-.17.13Zm.19-1.73s-.1-.08-.16-.12c.06-.07.12-.14.18-.21.04.06.08.12.12.18-.04.05-.08.14-.14.15Zm2.32,14.23c-.26-.63-.06-.89.46-.9.14,0,.4.2.4.3-.01.63-.54.38-.86.59Zm1.59-4.57c-.75-1.57-2.24-2-3.81-2.68.31-.25.53-.41.69-.54.89.6,1.71,1.18,2.56,1.71.56.35.77.79.55,1.51Zm.44,1.76c-.11,0-.21-.16-.32-.25.05-.08.1-.16.14-.25.21.07.43.15.85.29-.36.12-.52.21-.68.21Zm1.86-6.65s.01-.01.01-.01c0,0-.01.01-.01.01-.25-.33-.49-.66-.74-1,0-.01-.02-.02-.02-.03-.17-.08-.35-.16-.52-.25.06-.07.12-.15.18-.22.11.16.23.31.34.47.01,0,.03.01.04.02h-.01s.01,0,.01,0c.25.33.49.67.74,1,.02.02.02.04.04.06.42.39.84.77,1.33,1.21-.12.25-.27.56-.48.99-.79-.59-.39-1.58-.85-2.2-.02-.02-.04-.03-.05-.05Zm1.23,12.18c-.2-.21-.4-.33-.4-.45,0-.14.18-.28.28-.42.14.11.35.19.38.32.03.12-.13.29-.27.55Zm1.36-16.24c-.29-.13-.58-.24-1.15-.48,1.56-.27,2.04-.03,2,.9-.31-.15-.57-.3-.85-.42Zm1.25,3.85c.55-.57.56-.57,1.47.43-.48-.14-.97-.29-1.47-.43Zm4.8-1.09c.29-.47.45-.73.64-1.04q.23.72-.64,1.04Zm3.84,11.9c-.2-.02-.38-.24-.48-.56h.98c.04.1.08.2.11.31-.21.09-.42.27-.62.25Zm4-4.92c.03.07.08.14.09.21,0,.04-.08.08-.12.12-.04-.07-.1-.14-.1-.21,0-.03.09-.08.13-.12Zm.03,2c-.06-.04-.13-.08-.19-.12.09-.18.18-.36.27-.55l.29.17c-.12.16-.24.33-.37.49Zm4.33-9.07q-.08.99-.79,1.05c0-.51.05-.93.79-1.05Zm-1.87,12.27s-.23-.12-.22-.17c.02-.13.11-.25.28-.57.12.23.23.35.2.43-.04.12-.16.23-.26.3Zm.5,11.38c-.08-.1-.15-.21-.23-.31.09-.06.17-.18.26-.17.07,0,.14.14.23.24-.1.09-.18.17-.25.24Zm2.87-12.09c-.4.25-.72.62-1.16,1-.42-.14-.83-.28-1.54-.52,1.19-.15,2.13-.26,2.51-1.32.48.06.92.11,1.37.16.02.07.04.14.05.21-.42.15-.87.24-1.24.47Zm2.26,7.06c-.01-.09-.02-.19-.03-.28.22-.02.44-.03.66-.05,0,.08.02.15.03.23-.22.03-.43.07-.65.1Zm2.58-2.46c.04-.59.08-1.08.11-1.57q.31,1.05-.11,1.57Zm2.43-14.07c-.09-.08-.19-.16-.18-.18.05-.09.12-.17.19-.26.05.05.16.11.15.15-.02.1-.09.18-.15.28Zm2.46,21.25c-.08-.08-.21-.14-.23-.23-.02-.07.11-.17.2-.29.1.12.22.21.22.29,0,.08-.12.16-.19.24Zm.5,1.22c-.08-.02-.17-.03-.25-.05.05-.15.09-.3.14-.45.06.01.11.03.17.04-.02.15-.04.3-.06.46Zm1.74-10.26c.08-.02.16-.05.24-.07.08.35.15.71.26,1.23-.73-.34-.38-.82-.51-1.16Z"/>
      </g>
      <path class="cls-1" d="m150.07,3.62c.15.09.27.24.51.47-.36.09-.6.06-.81-.12v22.71s0,0,0,0c.06.04.15.07.17.12.02.06-.04.14-.06.21-.04-.03-.07-.05-.11-.08v30.5h.8c0,.08.01.16.02.25-.27.02-.54.05-.82.07v23.85h22.56v-41.8c-.06.04-.12.08-.16.15-.08-.14-.16-.28-.24-.42.13-.07.26-.14.4-.21v-9.68c-.15-.11-.28-.2-.39-.28-.1.2-.2.4-.38.76-.29-.38-.5-.67-.71-.95.06-.08.11-.15.17-.23.43.03.86.05,1.33.08V2.38s-.06-.03-.09-.05c.03-.05.06-.1.09-.16v-.97h-22.56v2.34c.14.02.23.04.3.08Zm3.36,76.05c-.11-.19-.22-.3-.19-.36.06-.13.18-.23.28-.34.06.09.19.18.17.25-.03.13-.14.25-.26.44Zm15.72-66.16c.05-.01.18.1.18.12-.03.09-.09.24-.15.24-.1,0-.2-.09-.36-.17.15-.09.24-.17.33-.19Zm-.07,10.3c.07.05.14.1.21.14-.15.2-.29.4-.44.61-.06-.04-.12-.09-.19-.13.14-.21.28-.41.42-.62Zm-1.51-4.69c-.78-.1-.75-.66-.8-1.24.98.18,1.05.28.8,1.24Zm-1.24,16.03c.17-.37.31-.93.96-.34-.16.42-.32.85-.48,1.28-.8-.07-.68-.51-.48-.94Zm-.16,6.79c-.13.17-.26.35-.39.52-.08-.06-.16-.13-.24-.19.15-.16.3-.32.45-.47.06.05.11.09.17.14Zm-.71-26.9c.07.08.18.17.18.25,0,.1-.1.19-.19.33-.1-.11-.25-.22-.24-.26.04-.12.16-.21.24-.32Zm-.34,14.39c.07.08.18.16.2.25.01.08-.09.17-.17.32-.1-.15-.21-.23-.21-.32,0-.08.12-.16.18-.24Zm-.9-15.12c.09,0,.18.13.32.25-.13.08-.22.19-.29.18-.09-.02-.16-.14-.25-.21.07-.08.16-.22.22-.22Zm-.83,66.77c-.35-.07-.53-.11-.71-.14,0-.05,0-.11,0-.16.12-.02.25-.08.37-.05.09.02.15.14.35.36Zm-.71-57.71c.08.02.13.15.24.28-.16.04-.27.12-.34.09-.08-.04-.12-.17-.18-.25.1-.04.2-.13.29-.12Zm-.98,24.53q.22.71-.22,1.73c-.53-.74-.53-.75.22-1.73Zm1.37,17.33c-.83.79-1.75.56-2.79-.57,1.13-.6,1.66.94,2.79.57Zm-3.96-29.54c-.08-.67-.14-1.18-.22-1.84.81,1.02.85,1.25.22,1.84Zm-1.72-15.67c.18.77.17.77-.16,1.53-.09-.02-.17-.03-.26-.05.12-.42.24-.85.42-1.48Zm-1.57,26.86c.07.08.14.15.24.26-.11.09-.19.16-.28.23-.06-.08-.19-.17-.17-.24.02-.09.14-.17.21-.25Zm-.41-32.44c.05.1.11.19.13.29,0,.03-.11.09-.17.13-.06-.09-.12-.17-.16-.27,0-.02.11-.08.2-.15Zm-.42-6.5s.08.1.12.15c-.06.04-.12.11-.18.1-.05,0-.08-.1-.12-.16.06-.04.12-.1.18-.1Zm-.62.32c.1.51.15.76.2,1.01-.13.02-.23.07-.26.05-.28-.25-.45-.51.06-1.06Zm-1.33,40.18c.14.13.29.25.43.38.02.01.05.02.07.04v.02c.32,0,.7-.04.71.42,0,.38-.2.61-.71.47v-.89h-.01v-.02s0,.02,0,.02c-.02-.02-.04-.03-.06-.05-.18-.09-.35-.17-.53-.26.03-.04.06-.08.09-.13Zm-.91-11.72c-.08-.18-.16-.37-.23-.56,0,0,.18-.1.18-.09.11.16.21.33.32.5-.09.05-.18.1-.27.15Zm-.31-19.85c.14.02.27.08.47.14-.14.14-.23.28-.27.27-.12-.05-.22-.15-.31-.24-.01-.01.08-.18.11-.17Z"/>
      <path class="cls-1" d="m318.76,45.27c.3-.23.54-.4.77-.57l-1.98-3.62c-1.83-.17-3.72.01-5.58-.7.76-.22,1.34-.43,2.18-.27,1.36.25,2.82.22,4.07-.69.09-.07.21-.1.32-.14l3.27-5.74c-.37-.08-.74-.17-1.01-.37-1.09-.83-2.34-1-3.6-.84-.93.12-1.62-.29-2.4-.71.54-.11,1.11-.13,1.6-.34.93-.38,1.84-.83,2.72-1.31.73-.4,1.39-.32,2.06.1,1.09.68,2.19.17,2.41-1.11.06-.33.13-.65.2-.98.09-.01.18-.02.27-.04.17.25.32.52.48.79l1.99-3.5c-.13-.07-.26-.14-.41-.22.03-.58.05-1.05.08-1.78.32.33.66.59,1,.82l13-22.84h-25.56l-15.84,29.88h-14.64V1.2h-22.56v70.27c.59-.19,1.11-.36,1.63-.53.02.09.05.18.07.27-.86.59-1.19.7-1.7.43v9.96h22.56v-28.56h14.88l14.76,28.56h25.92l-19.8-36.17c-.35-.05-.72-.1-1.17-.16Zm6.27-24.18c.18.05.35.09.53.14l-.05.18c-.18-.04-.35-.09-.53-.13.02-.06.03-.12.05-.18Zm-5.76,8c-.69.08-1.36.26-2.06.4.02-.08.04-.42.17-.47.96-.38,1.97-.56,3.18-.55-.36.63-.82.58-1.28.63Zm3.81-2.4c.41.05.68.08,1.17.13-.58.55-.84.35-1.17-.13Zm-1.28-5.53c.31-.71.77-.82,1.48-.35-.54.14-.99.26-1.45.38-.2.18-.4.37-.6.55-.04-.05-.07-.09-.11-.14.23-.15.45-.3.68-.45h0Zm.03,5.13c-.18.61-.52.92-1.13,1.25.15-.73.31-1.2,1.13-1.25Zm-3.89-4.65c.88.2,1.74.39,2.6.59.03.08.06.16.08.24-.18.1-.37.3-.53.28-.6-.05-1.2-.29-1.79-.25-.52.04-1.02.35-1.53.54-.05-.07-.1-.13-.14-.2.43-.39.86-.79,1.31-1.21Zm-53.1-11.59s-.18-.05-.18-.07c0-.1.04-.19.07-.3.1.05.22.09.22.1-.02.09-.06.19-.11.27Zm3.04,71.02c-.09,0-.17-.11-.25-.18.05-.05.1-.14.16-.15.09,0,.19.04.38.09-.14.12-.21.24-.28.24Zm4.74-32.66c-.04-.06-.12-.14-.1-.18.03-.07.12-.12.18-.19.02.07.07.15.06.22,0,.06-.09.1-.14.15Zm41.18-16.83c-1.21.77-2.06-.35-3.04-.36,1.04-.45,1.99-.16,3.04.36Zm-6.68.1c-.04-.18-.05-.36-.07-.54.08,0,.16,0,.24,0,.02.19.03.38.05.58-.08,0-.22,0-.22-.02Zm.14-1.56c-.05-.03-.08-.1-.12-.16.05-.03.1-.05.15-.08.04.06.08.11.12.17-.05.03-.12.09-.16.08Zm4.07,20.91c-.27-.25-.42-.4-.64-.61.31-.15.51-.25.84-.42-.07.37-.12.62-.2,1.03Z"/>
      <path class="cls-1" d="m454.45,64.92l7.92,16.68h22.86c-.1-.3-.1-.69-.38-1,.62.09.95.14,1.31.19-.05.3-.09.56-.13.81h2.62l-8.4-18.24c-3.12-6.84-6.36-12-14.52-14.16v-1.08c13.56-1.56,18.48-9.48,18.48-22.2,0-16.08-9.6-24.72-29.88-24.72h-40.44v80.4h22.56v-25.68h5.52c7.56,0,9.12,2.04,12.48,9Zm23.6-2.64c.13.06.26.11.38.18.03.02,0,.13-.01.2-.16-.04-.31-.09-.47-.13.04-.08.07-.17.11-.25Zm-.09,12.84c-.32.04-.65.07-1.03.11q.32-.7,1.03-.11Zm-5.31-11.18c.04.06.11.12.1.17,0,.05-.09.09-.13.13-.05-.04-.11-.08-.16-.12.06-.06.13-.12.19-.18Zm10.65-37.5c.08.18.16.35.24.53-.07.03-.13.07-.2.1-.1-.18-.2-.35-.3-.53.09-.04.17-.07.26-.11Zm-7.07-8.56c.34.06.68.11,1.02.17-.41.45-.73.25-1.07.12.01-.1.03-.2.04-.29Zm-10.88,8.66s.09.08.13.12c-.06.04-.12.09-.19.13-.05-.04-.09-.09-.14-.13.06-.04.12-.11.19-.12Zm-1.82,12.89c.03.06.08.14.07.19-.01.05-.11.07-.16.11-.04-.05-.09-.11-.13-.16.08-.04.15-.09.23-.14Zm-32.61-4.85c-.13-.11-.2-.18-.27-.25.08-.06.15-.14.24-.16.04-.01.16.08.16.12,0,.08-.06.16-.13.29Zm5.52-13.09h17.04c6.36,0,8.16,1.68,8.16,7.56,0,6.36-1.8,8.16-8.16,8.16h-17.04v-15.72Zm5.07,17.99c-.04-.05-.12-.1-.12-.16,0-.05.09-.09.14-.14.06.03.12.07.18.1-.07.06-.13.13-.2.19Z"/>
      <g>
        <path class="cls-1" d="m29.31,103.85c.18-.05.35-.1.51-.15h-1.95c.37.21.83.31,1.44.15Z"/>
        <path class="cls-1" d="m140.34,103.7l-5.19,40.45-4.3,49.4h-2.33l-7.52-49.4-8.23-40.45h-48.15l-8.77,42.24-3.22,23.83c.05-.07.11-.13.19-.18.55-.31,1.7-.09,2.3.43-.49.38-.91.72-1.34,1.05-.4.31-.84.23-1.14-.2-.06-.09-.09-.18-.12-.27l-3.11,22.96h-2.33l-4.12-47.61-5.73-42.24h-5.5c.1.18.2.35.31.54-.88.47-1.79.63-2.78.51-.51-.06-1.04-.01-1.55.07-.65.1-.94.48-.95,1.19-.02,1.17-.78,1.96-2.04,2.24q-.05-1.02.59-1.62c-.63-1.14-.64-1.57.02-2.3.2-.22.51-.36.78-.51.07-.04.15-.07.23-.11h-7.65s0,0,0,0c.41.61.87.83,1.65.59.88-.27,1.2-.02,1.7.89.17.31.35.61.56.97-.52.31-.87.57-1.34.03-.64-.75-1.1-.82-1.81-.18-.64.57-1.36.61-2.38.73,1.51-1.38,1.63-1.52,1.23-3.03H0l17.6,100.8c.08.02.15.06.23.09-.04.07-.08.14-.11.21-.02,0-.04.01-.06.02l3.2,18.35c.14-.19.29-.4.44-.61.87-.08,1.14.44,1.46,1-.07.02-.13.05-.2.07h2.8s.08-.04.12-.06c.01.02.02.04.03.06h1.69s.09-.05.13-.08c.01.03.03.05.04.08h20.48c-.13-.38-.25-.84-.36-1.37-.52.89-1.2.85-1.95.49-.18-.09-.39-.17-.58-.16-.9.04-1.39-.41-1.72-1.21-.34-.81.16-1.36.33-2.29,1.13.98,1.21,2.31,2.28,3.14.08-.69.14-1.16.2-1.64.33-.18.82.07.95-.48.12-.47.36-.9.55-1.35.24-.58.67-.58,1.13-.49-.37.76-.75,1.46-1.02,2.19-.09.23.06.6.19.86.18.35.41.69.67.98.39.45.47.88,0,1.32h4.81c-.07-.19-.11-.42-.09-.71.03-.54-.43-.67-.85-.31-.15.13-.24.36-.4.46-.23.13-.55.31-.74.24-.21-.07-.46-.44-.43-.64.04-.26.31-.67.53-.7.82-.11,1.3-.62,1.71-1.26h1.37v.95c-.38-.19-.65-.33-1.07-.54.08.32.07.59.17.64.32.15.69.34,1.01.3.64-.09,1.27-.3,1.89-.51.21-.07.49-.28.52-.46.14-.85.82-.68,1.45-.75-.1.18-.16.4-.3.54-.5.48-1.05.91-1.53,1.4-.26.28-.42.65-.47,1.15.27-.18.53-.36.83-.57.09.13.22.23.21.31-.03.15-.08.3-.11.45h9.04c-.1-.59-.19-1.15.31-1.68.16-.17.08-.54.16-.8.09-.3.25-.59.4-.93,1.13.92,1.07.92.48,1.93-.25.43-.35.97-.39,1.49h3.34l10.38-45.47,6.62-40.99h2.15l6.44,40.99,10.38,45.47h49.4l21.12-119.93h-36.52Zm-114.7,19.04c-.33.1-.66.2-.99.31.16-.84.59-.48.99-.31Zm-4.06-11.37s.02,0,.03.01c0,.01,0,.02,0,.04.73.45.99,1.11.87,1.95.5.06,1,.13,1.5.19,0,.06-.02.11-.02.17-.99.25-1.98.49-2.97.74-.03-.04-.07-.08-.1-.12.52-.33,1.05-.65,1.57-.98-.57-.52-.72-1.23-.86-1.95,0,0-.02-.01-.03-.02l.02-.02s-.02.02-.02.02c0-.01,0-.02-.01-.03-.3-.14-.61-.27-.99-.45.71-.32.72-.32.99.45Zm2.92,42.56c-.5.55-.92,1-1.38,1.5-.43-.48-.45-.89-.05-1.31.4-.42.84-.56,1.43-.18Zm-13.01-46.98c-.64-.02-.95-.43-.95-1.28,0-.75.26-1.12.78-1.15.65-.03,1.11.37,1.11.97,0,.84-.41,1.46-.95,1.45Zm2.42,40.47c-.06,0-.12.01-.18.02-.03-.2-.06-.39-.09-.59.09,0,.18-.01.27-.02v.59Zm3.43,28.52c-.24-.95-.44-1.74-.67-2.64.66.51,1.57,1.98,1.69,2.71-.46.35-.81.06-1.02-.07Zm1.84-23.97c-.02-.07-.09-.18-.07-.2.07-.07.17-.11.26-.16.02.07.04.14.08.25-.09.04-.18.08-.27.12Zm-.2-4.8c-.32-.33-.72-.6-1.08-.9-.06-.72-.12-1.52-.19-2.31,0,0-.01,0-.02,0h.01s-.01,0-.01,0c-.01,0-.02-.01-.03-.02-1.66-.15-2.94.93-4.53,1.26.62-.47,1.23-.97,1.87-1.41.51-.34.83-.74.88-1.38.03-.42.08-.93.81-.83.1.88-.19,1.94.96,2.35.02,0,.03,0,.05,0,0,0,0,.01,0,.02.72.19,1.45.34,2.16.57.63.2.69.77.17,1.28-.08.08-.2.14-.22.15.4.39.74.73,1.09,1.08-1.07.97-1.13.96-1.93.12Zm.87,56.18c.22-.67.44-1.09,1.2-.64-.19.52-.36.98-1.2.64Zm2.78,12.99c-.39-.12-.8-.17-1.12-.37-.42-.27-.61-.8-.24-1.16.67-.64.63-1.18-.28-1.9h1.79c.06-.86.58-1.43,1.27-1.86.91.71,1.05,1.3.4,2.03-.35.4-.83.68-1.26,1.02.45.81-.06,1.46-.55,2.24Zm2.79,3.58c-.66-.36-1.37.33-2.1-.24.53-.32.98-.66,1.48-.89.2-.09.58-.03.73.11.16.16.19.49.21.75,0,.09-.27.29-.32.27Zm.8-106.09c-.06,0-.12-.06-.19-.09.05-.04.11-.09.16-.09.06,0,.12.05.18.08-.05.04-.1.1-.15.1Zm2.26,26.3c.09.09.17.16.25.23-.11.08-.22.18-.34.22-.04.01-.13-.15-.2-.23.09-.07.17-.14.29-.23Zm-1.26-31.16c-.06-.09-.09-.18-.14-.28.06-.03.12-.05.21-.09.03.1.08.2.09.3,0,.01-.16.08-.17.07Zm.46,7.99c.13,0,.27.08.49.16-.18.15-.28.28-.35.27-.13-.02-.25-.14-.37-.21.08-.08.15-.22.23-.22Zm.83,96.4c-.25-.27-.51-.54-.81-.86q.88-.13.81.86Zm.15-49.12c-.12-.16-.18-.24-.24-.33.13-.06.26-.13.4-.17.04,0,.16.13.15.14-.08.11-.17.21-.31.35Zm.45,27.52s-.06-.03-.1-.04c.04-.06.07-.11.11-.16,0,0,.06.03.1.05-.04.06-.07.11-.11.16Zm14.56-11.4c.14.19.3.31.29.41-.01.1-.19.25-.29.25-.1,0-.28-.16-.29-.26-.01-.1.15-.21.29-.41Zm-.85,2.32c.07.23.13.47.2.7-.08.03-.16.05-.24.08-.06-.24-.12-.48-.18-.71.07-.02.15-.05.22-.07Zm.09,8.64c.35-.24.69-.5,1.19-.87-.36,1.1-1.44,1.08-1.88,1.77.16-.54.16-.54.69-.9Zm-1.17,3.67c-.5.37-.98.76-1.55,1.2-.1-.15-.27-.39-.48-.7.86-.48,1.64-.92,2.5-1.41.28.52-.15.68-.47.91Zm-1.35,2.33c-.03.13-.14.24-.25.43-.11-.17-.24-.28-.21-.33.05-.12.18-.22.27-.33.07.08.21.17.2.22Zm.49-12.32s.11,0,.11.02c0,.14,0,.29,0,.44-.08-.02-.16-.04-.24-.06.04-.13.08-.26.13-.39Zm-1.34-20.33c.84,1.55.84,2.01.01,2.86-.89-.83-.89-1.78-.01-2.86Zm.45,5.94c-.18.06-.36.12-.54.18-.02-.1-.04-.2-.06-.3.19-.03.37-.06.56-.09.02.07.04.14.05.21Zm-1.03,7.02c.27.17.55.33.82.5-.16.19-.31.39-.61.75-.2-.56-.28-.82-.37-1.07.05-.06.11-.12.16-.18Zm-1.41-13.41c.54-.18.78.1.92.58.23.79.18.92-.63,1.54q-.42-.57-.3-2.12Zm-.21,32.13c.39-.51-.13-1.24.6-1.67.41.37.59.77.36,1.28-.15.32-.28.72-.96.4Zm.87,1.01c-.05.09-.08.15-.11.2-.06-.04-.14-.06-.17-.12-.03-.05,0-.14.01-.21.09.04.18.08.27.12Zm-2.08-21.06c.23-.37.4-.63.68-1.07.39.89.24,1.17-.68,1.07Zm1.32,6.72c.24.42.41.73.59,1.03-.26.38-.47.8-.98.54-.41-.21-.3-.68.39-1.57Zm-.06,6.74c-.69.04-.9-.19-.86-.76.54-.09.66.25.86.76Zm.27-17.86c-.08.99-.1,1.99-.15,3.03-.88-.3-1.19-.64-1.07-1.31.12-.69.22-1.32-.11-1.99-.09-.18.12-.51.22-.86.81.12,1.18.4,1.12,1.13Zm-.84-66.13c0,.09-.05.19-.1.36-.12-.14-.22-.22-.24-.31,0-.05.1-.15.18-.19.02-.01.15.08.15.14Zm-2.36,107.85c.07.01.13.03.19.05-.01.03-.03.09-.03.09-.07-.01-.13-.03-.19-.05.01-.03.03-.1.03-.1Zm-.05,1.51s.05.05.07.08c-.05.04-.1.08-.16.11,0,0-.05-.05-.07-.08.05-.04.1-.08.16-.11Zm-2.18-7.82s.09-.04.1-.03c.03.05.06.12.08.18-.07.02-.13.03-.2.05,0-.07,0-.13.02-.2Zm-.19-100.46c-.07.11-.14.24-.23.33-.02.02-.13-.04-.35-.12.27-.1.43-.15.58-.21Zm-1.65,70.9c.08-.3.26-.3,1.01-.08-.04.53-.37.7-.83.57-.1-.03-.22-.34-.18-.49Zm-.82,31.3c.07.03.13.06.2.08-.05.16-.11.32-.16.48-.07-.03-.19-.08-.19-.09.04-.16.1-.31.15-.47Zm-.05,3.18c.09.05.17.13.25.2-.07.08-.12.13-.17.18-.07-.08-.15-.15-.21-.24,0-.01.12-.15.13-.14Zm2.5,3.31c-.84.31-.61,1.58-1.68,1.8,0-.63.11-1.25-.03-1.81-.15-.61-.52-1.16-.89-1.93.61.09,1.09.17,1.63.25-.19-.49.01-.82.53-.95,1.07-.27,1.36-1.03,1.34-2.03,0-.41.12-.83.18-1.24.09,0,.18,0,.27-.01.08.19.22.38.23.58.05.69.05,1.38.07,2.07.03.98-.68,1.41-1.38,1.84-.82.52-.83.51-.28,1.44Zm1.07.73c.2-.35.61-.52,1.25-.12-.23.57-.43,1.13-.69,1.66-.07.14-.36.29-.48.25-.19-.07-.48-.31-.47-.45.06-.46.16-.95.39-1.34Zm1.44,5.18l-.18-.1c.12-.13.23-.26.35-.4,0,0,0,0,0-.01,0,0,0,0,0,0-.33.12-.67.24-1,.37-.28.11-.56.22-.94.37-.04-.8.34-1.12.86-1.28.51-.16.86.08,1.07.54,0,0,.01,0,.02,0,0,0,0,0,0,0,0,0-.01.01-.02.02-.06.16-.11.33-.17.49Zm.56-1.08c-.07-.07-.16-.12-.22-.21-.02-.03.06-.12.09-.18.08.06.16.11.24.16-.05.1-.08.16-.11.22Zm.06-15.32c-.11-.17-.22-.34-.33-.51.08-.05.16-.1.24-.14.09.18.19.35.28.53-.06.04-.13.08-.19.12Zm-.13-100.87c.21-.12.45-.36.63-.33,1,.19,1.03.26,1,1.12-.4-.07-.83-.08-1.2-.22-.19-.07-.29-.37-.42-.57Zm.62,80.93c0-.05.05-.11.09-.17.06.02.12.05.19.07-.05.08-.09.16-.14.24-.05-.05-.13-.09-.14-.14Zm2.36,23.32c-.1-.05-.2-.1-.29-.15-.07-.26-.13-.52-.2-.76-.73-.14-1.12.32-1.55.86-.24-.86.39-1.08.8-1.26.55-.25,1.08-.4.78-1.37.99.53,1.03,1.27,1.14,1.89.04.22-.44.53-.68.8Zm-.36-6.97c.72.48,1.32.92,1.34,1.85-.99-.01-1.28-.4-1.34-1.85Zm1.27-11.27c-.06-.08-.14-.16-.16-.25-.01-.04.1-.16.14-.16.1.02.18.09.33.17-.14.11-.23.17-.31.24Zm.91,28.13c-.02-.67-.43-1.42.51-1.98-.06.79.2,1.5-.51,1.98Zm2.11,5.2c-.11-.81.05-1.58.34-2.33,0,0,0,0,0,0v-.02s0,.02,0,.02c0,0,0,0-.01,0-.21.1-.43.2-.76.35.21-.57.47-.5.76-.35,0,0,.02,0,.03-.01,0,0,0,.01,0,.02.92.31.59,1.14.69,1.76.06.36-.21.47-1.04.57Zm1.65-16.15c-.07.73-.43,1.1-1.13,1.2-.2.03-.4.09-.59.14-.6.14-.91.51-.89,1.13.02.77.06,1.54.08,2.31.02.62-.17,1.11-1.05,1.33,0-.43-.11-.78.02-.96.63-.92.55-1.92.47-2.94-.08-1.02-.07-1.03.93-1.34.87-.27,1.48-.77,1.72-1.71.13-.49.18-1.11.93-1.53-.05.42-.05.63-.1.84-.12.51-.34,1.01-.39,1.52Zm1.76,11.09c-.39-.13-.71-.23-1.19-.39-.08-.25-.24-.72-.43-1.3,1,.33,2.03.41,2.85,1.12-.48.22-.91.42-1.23.57Zm3.39,1.8c-.06,0-.11.02-.17.02-.03-.22-.07-.44-.1-.65.09,0,.18-.01.27-.02v.64Zm3.38-1.15c.3-.77.7-.91,1.33-.88-.25.56-.61.76-1.33.88Zm8.53-4.14c.03.06.1.12.09.16-.02.05-.1.08-.15.11-.03-.06-.1-.12-.09-.17.01-.05.1-.07.16-.11Zm.26,7.77c-.35-.48-.63-.87-.96-1.33.8-.43.99.4,1.51.37,0,.1,0,.2.01.3-.15.17-.29.35-.56.66Zm3.63-20.46c-.52.1-1.32-.5-1.36-.97-.03-.4.11-.72.59-.75.56-.03,1.35.61,1.41,1.34-.16.1-.38.33-.64.38Zm.51-40.86q.51.31.6.96c-.18-.28-.35-.56-.6-.96Zm1.58,44.29c.04-.11.07-.23.13-.34,0,0,.13.04.31.1-.19.1-.32.17-.44.23Zm3.74,2.28c-.18.32-.32.65-.52,1.05-.22-.08-.43-.15-.69-.23-.22.25-.46.52-.76.87-.38-.12-.68-.21-1.08-.33.21-.46.39-.85.56-1.23-.02-.1-.01-.2-.06-.25-.56-.71-.7-1.23-.4-1.6.29-.36,1.39-.39,1.94-.03.27.18.5.42.77.6.47.31.49.69.24,1.16Zm3.44-27.8q.5-.46,1.23.37c-.49-.15-.83-.25-1.23-.37Zm1.03-48.2c-.44.08-.79-.02-.77-.58.04-.72.12-1.44.22-2.15.02-.11.2-.21.52-.51.09,1.25.69,2.19.02,3.24Zm.92-12.12c-.08-.11-.2-.21-.24-.33-.02-.07.1-.27.15-.26.12,0,.24.1.44.2-.17.19-.26.29-.35.39Zm41.84,90.1c.09,0,.19,0,.28.01.03.28.06.56.11,1.03-.48-.4-.56-.69-.39-1.04Zm-5.83-7.49c-.12-.05-.22-.15-.33-.23.07-.07.14-.19.22-.2.09,0,.18.09.31.16-.09.11-.18.27-.2.26Zm1.49.84c-.28.25-.55.19-.87-.26.38-.06.65-.1.92-.14-.01.14.03.34-.04.41Zm4.07,13.19c.15-.48.35-.85.95-.33-.32.11-.63.22-.95.33Zm5.14-35.67c-.09-.02-.16-.14-.24-.22.08-.07.17-.19.25-.19.09,0,.17.12.31.23-.14.08-.24.19-.32.18Zm2.61-3.35c-.06.02-.28-.23-.26-.29.06-.14.2-.29.34-.35.06-.03.21.14.41.29-.22.17-.34.31-.5.36Zm19.35-73.53c.1.34.2.68.3,1.02-.1.03-.21.06-.31.09-.06-.35-.13-.7-.19-1.06.07-.02.13-.03.2-.05Zm-11.02,70.05c.03.06.05.12.08.18-.06.03-.11.06-.17.09-.03-.06-.09-.13-.07-.18.01-.04.11-.06.16-.09Zm.11,41.86c-.33-.1-.65-.19-1.03-.3.07-.48.13-.91.21-1.51.36.05.61.08,1.02.14-.5.57-1,1.07-.21,1.67Zm1.57-63.82c-.03-.1-.08-.18-.06-.22.03-.06.11-.11.18-.12.04,0,.09.08.13.13-.08.06-.16.13-.25.2Zm1.01,54.81c-.36-1.09.24-1.75.64-2.48.11,0,.22.02.33.03.08.69.15,1.38.25,2.23-.37.07-.78.14-1.22.22Zm2.46.34c-.07,0-.15-.03-.2-.07-.01-.01.03-.11.05-.17.07.02.14.05.21.07-.02.06-.04.16-.06.16Zm.9,10.84s-.05-.03-.08-.05c.04-.03.09-.07.13-.1.03.02.06.03.08.05-.04.03-.09.08-.14.1Zm.08-95.01q.59-.17.94.82c-.58,0-.65-.52-.94-.82Zm3.2,14.4c-.08-.06-.15-.13-.23-.19.07-.08.14-.16.21-.24.08.07.19.14.18.16-.04.1-.11.19-.17.28Zm1.56,70.45c-.05-.06-.1-.11-.15-.17.13-.13.27-.27.4-.4.08.08.15.16.23.24-.16.11-.32.23-.48.34Zm.57,13.65c-.04-.1.09-.27.14-.4.09,0,.18.02.27.03.02.22.04.43.09.89-.28-.28-.46-.38-.51-.52Zm.74-13.97v-.21c.25-.02.52-.05.79-.07,0,.08,0,.16.01.23-.27.02-.54.03-.81.05Zm2.47-22.9c-.44-.29-1.15-.25-.89-1.04.13-.4.49-.38.79-.21.6.33.4.75.1,1.25Zm1.43,37.85c-.1.03-.19.06-.29.08,0-.03-.02-.05-.03-.08.1-.03.21-.07.31-.1,0,.04.01.1,0,.1Zm4.93-88.21c-.34-.4-.5-.51-.5-.62,0-.1.22-.31.25-.29.15.08.33.2.39.35.05.12-.06.3-.13.56Zm12.31-18.61c-.07-.01-.14-.03-.21-.04.02-.03.03-.1.05-.1.07,0,.13.02.2.03-.02.04-.03.07-.05.11Zm.62,1.24c-.1-.17-.21-.34-.31-.5.05-.04.1-.08.15-.12.13.15.26.3.39.45-.08.06-.15.11-.23.17Zm2.01,8.89c-.03-.17-.07-.33-.1-.5.05-.01.11-.02.16-.04.03.17.07.33.1.5-.05.01-.11.02-.16.04Zm3.6-11.04c.11-.1.21-.21.33-.28.04-.02.15.12.29.23-.14.12-.24.26-.36.28-.07.01-.17-.15-.26-.24Z"/>
      </g>
      <path class="cls-1" d="m202.45,103.7l-6.57,18.88c.06-.02.12-.04.17-.06.03.07.05.13.08.2-.11.04-.23.08-.34.12l-35.05,100.79h34.73l7.7-23.09h45.47l7.34,23.09h36.87l-41.53-119.93h-48.87Zm-28.74,115.13c-.11-.06-.21-.16-.29-.26-.01-.02.08-.17.1-.16.13.02.26.07.46.14-.14.15-.24.29-.27.28Zm11.6,1.65c-.08-.05-.16-.11-.24-.16.14-.19.27-.39.47-.67.31.56.08.71-.23.84Zm16.88-96.31c.06.02.11.05.17.07-.05.16-.09.32-.14.47l-.27-.1c.08-.15.16-.29.24-.44Zm-5.59,23.01c-.03.11-.38.26-.47.21-.36-.21-.41-.55-.15-.99.49.12.73.36.62.78Zm5.19-15.75c-.11-.06-.22-.12-.33-.18.3-.73.02-1.71,1.08-2.21.12.25.38.56.31.7-.3.59-.7,1.13-1.06,1.68Zm40.89-24.55c.09.13.2.21.2.3,0,.09-.11.17-.17.26-.07-.07-.2-.14-.2-.21,0-.09.09-.19.17-.35Zm-6.06,10.77c.5-.08,1.01-.16,1.25.58-.7.33-1.35.65-2.01.96-.06-.09-.11-.18-.17-.27.2-.17.44-.31.59-.51.15-.21.22-.48.34-.76Zm-.89-.92c.08.05.17.09.25.14-.05.1-.08.16-.11.22-.08-.06-.17-.11-.24-.18-.02-.02.06-.11.09-.17Zm-9.93-3.73c.04.08.07.15.1.21-.07.02-.13.04-.2.06,0,0-.05-.08-.04-.1.03-.06.09-.11.14-.16Zm-3.58-3.7c.15.12.3.24.45.36.02,0,.04,0,.06.01.02.02.03.04.05.06.28.17.56.34.84.51-.08.09-.16.18-.24.27-.2-.26-.4-.52-.61-.78l-.07-.04.02-.02s-.02.02-.02.02c-.01-.01-.03-.02-.04-.03-.19-.03-.38-.07-.57-.1.04-.09.08-.17.12-.26Zm1.64,3.1c-.1.11-.16.24-.24.26-.1.02-.21-.05-.32-.07.07-.12.13-.26.23-.34.03-.03.18.09.33.16Zm-2.09-8.36c.08,0,.18.08.31.15-.08.12-.14.21-.2.29-.11-.08-.22-.16-.33-.25.07-.07.14-.18.22-.19Zm-1.68,16.86c.06.13.15.23.13.31-.02.08-.14.13-.21.19-.06-.08-.17-.17-.17-.25,0-.07.13-.14.25-.24Zm-4.19,34.12c.09.02.17.08.3.16-.12.11-.2.18-.27.25-.05-.08-.13-.16-.15-.25-.01-.04.09-.16.13-.15Zm-12.4-39.53c-.08-.08-.21-.15-.23-.23-.01-.08.11-.18.19-.31.12.08.2.14.29.21-.08.11-.17.23-.25.34Zm1.05,2.14c-.06.01-.22-.13-.21-.18.01-.09.11-.21.2-.24.07-.02.17.09.3.17-.13.12-.2.23-.29.25Zm4.74,10.28c-.19.24-.38.48-.59.74q-.29-.52.46-.87l.32-.49c.06.05.13.09.19.14-.13.16-.25.32-.38.48h0Zm1.47,5.99c-.07.01-.27-.22-.25-.29.05-.16.2-.29.31-.43.12.11.25.22.46.42-.24.15-.37.28-.52.3Zm2.06,37.3l2.33-6.98,9.84-31.33h2.51l9.49,31.33,2.15,6.98h-26.31Zm26-42.82c.14,0,.28,0,.42,0,.02.35.04.7.06,1.05-.52-.3-.93-.61-.48-1.04Zm3.21-7.09c.4-.21.64-.33,1.01-.52-.12.5-.17.86-1.01.52Zm24.61,66.26c.5.18.87.25,1.14.45.17.13.3.51.23.69-.08.19-.44.39-.64.36-.29-.05-.63-.25-.77-.49-.12-.21.01-.56.05-1Zm-6.81-7.72c.23.07.41.28.7.51-.24.21-.43.44-.5.41-.22-.1-.41-.3-.6-.46.14-.16.33-.48.41-.46Z"/>
      <path class="cls-1" d="m349.77,193.41s-.1.02-.1.02c0-.02-.01-.03-.02-.05h-21.54v-34.87s-.09.08-.13.12c-.08-.1-.15-.21-.23-.31.09-.06.17-.18.26-.17.03,0,.07.04.1.08v-54.53h-25.03c.15.17.25.26.24.28-.39.52-.81,1.02-1.31,1.46-.22-.83.54-1.09.85-1.74h-8.41v7.46c.5.15,1.01.29,1.59.46.28.6-.23,1.1-.52,1.52-.37-.2-.72-.39-1.07-.59v7.59s.08-.02.11,0c.08.05.1.19.17.35-.11.01-.21.03-.28.03v103.11h15.92c-.44-.34-.42-.41.08-1.6v1.6h30c-.12-.61-.07-.73.18-1.34.25.5.3.93.17,1.34h47.46v-30.25h-38.49s0,.02.01.03Zm-21.95-6.9c-.03.06-.05.18-.08.18-.09,0-.19-.04-.28-.06.06-.08.11-.16.19-.22.02-.02.11.06.18.1Zm-2.82-44.47c.03.07.08.14.09.21,0,.04-.08.08-.12.12-.04-.07-.1-.14-.1-.21,0-.03.09-.08.13-.12Zm-10.1-29.32c.12.07.22.18.28.3.02.04-.12.15-.24.29-.12-.17-.22-.28-.27-.41-.01-.03.2-.2.23-.18Zm-4.61,8.62c.03.06.09.14.07.18-.02.05-.11.07-.17.11-.04-.05-.08-.11-.12-.16.07-.04.15-.09.22-.13Zm-.84-15.06c.04.58.07,1.07.11,1.77-1.01-.68-1.02-1.14-.11-1.77Zm-.62,12.4c-.61-.29-.98-.47-1.35-.65.92-.2,1.01-.16,1.35.65Zm-.76,11.14c.07.67.56,1.3.93,2.09-.13.17-.39.51-.79,1.03-.08-1.15-.45-1.98-1.23-2.58-.11-.08-.17-.27-.18-.42-.05-.62-.07-1.24-.12-2.05.74.53,1.29.97,1.39,1.93Zm-1.6,12.69c.21.07.43.15.85.29-.36.12-.52.21-.68.21-.11,0-.21-.16-.32-.25.05-.08.1-.16.15-.25Zm-.27-1.26c-.75-1.57-2.24-2-3.81-2.68.31-.25.53-.41.69-.54.89.6,1.71,1.18,2.56,1.71.56.35.77.79.55,1.51Zm-2.18,30.75c-.07.02-.13.04-.2.06-.07-.18-.13-.36-.2-.54.09-.02.18-.05.27-.07.04.18.08.37.13.55Zm-1.89-40.53c.06-.07.12-.14.18-.21.04.06.08.12.12.18-.04.05-.08.14-.14.15-.04,0-.1-.08-.16-.12Zm.14,1.72l-.17.13c-.13-.14-.26-.28-.39-.42.09-.06.18-.12.27-.18.1.16.2.32.29.48Zm.24,23.12c.1.01.2.07.45.17-.34.14-.43.18-.52.22-.04-.1-.09-.19-.1-.29,0-.02.12-.1.18-.09Zm1.5-20.33c-.27-.51-.45-.85-.66-1.25.96.28,1.01.36.66,1.25Zm-.77-16.57c.35.42.99.47.73,1.26-.32-.04-.65-.07-1.17-.13.18-.46.29-.74.45-1.13Zm-1.31-10.62q.68,1.11.31,2.9c-.39.1-.48-.09-.51-.44-.04-.55-.17-1.1-.17-1.65,0-.24.21-.48.37-.81Zm-2.12,15.4c.1-.02.21.07.58.23-.38.18-.5.27-.59.26-.08-.01-.19-.16-.19-.24,0-.09.11-.23.2-.24Zm1.43,5.94c.02.08.04.15.06.23-.57.24-1.14.48-1.77.75-.06-.17-.13-.34-.2-.54.69-.16,1.3-.3,1.91-.44Zm-2.49-5.51s-.29.1-.29.09c-.1-.23-.19-.46-.27-.7.12-.05.24-.11.36-.16.07.26.15.51.2.78Zm-.25-4.49c-.22.2-.5.33-.76.48,0,.02-.01.03-.02.04,0,0-.02,0-.02,0,0,.11,0,.24-.05.33-.05.08-.18.1-.28.15,0-.13-.04-.29.01-.38.04-.07.2-.07.31-.1,0,0,0-.02,0-.02.01,0,.03-.02.04-.02.18-.35.35-.71.53-1.06.08.02.16.05.24.07,0,.18.07.44-.01.52Zm-1.14,34.88c-.04-.05-.09-.11-.13-.16.15-.13.31-.26.46-.39.05.06.1.11.14.17-.16.13-.32.25-.47.38Zm.15,18.96c.1.11.25.2.3.32.03.1-.06.24-.14.53-.21-.27-.36-.4-.41-.55-.02-.07.16-.2.25-.3Zm-.41-22.32c-.1-.11-.17-.18-.24-.26.09-.07.17-.18.27-.19.07,0,.15.11.23.18-.08.08-.15.16-.26.27Zm-.09,13.58c.08.04.15.12.22.19-.05.05-.12.14-.15.13-.09-.04-.16-.11-.25-.18.08-.06.16-.15.18-.14Zm.42,14.27c.86.56.26,1.06.13,1.56-.1.37-.3.58-.82.33.49-.53-.39-1.49.69-1.89Zm-.63,7.85c.35.24.71.48,1.06.73.08.06.12.18.24.37-.86.13-1.13-.43-1.46-.91.05-.07.1-.13.15-.2Zm1.04-16.8c-.09-.11-.19-.21-.24-.34-.01-.03.17-.2.23-.19.11.02.2.14.34.25-.16.13-.24.2-.33.27Zm.48-61.95c-.22.22-.45.43-.67.65-.07-.06-.13-.11-.2-.17.22-.23.44-.46.66-.69.07.07.14.14.21.21Zm-.72-4.13c.5.16.53.58.07,1.61-.27-.37-.46-.63-.69-.93.22-.25.43-.47.61-.68Zm-.89,23.93c.08,0,.17.1.31.19-.14.1-.23.2-.31.2-.08,0-.16-.12-.24-.19.08-.07.15-.19.24-.2Zm-1.02-12.51c.09.21.18.43.27.64-.11.03-.21.06-.32.09-.05-.22-.09-.45-.14-.67.06-.02.13-.04.19-.06Zm-.05,48.18c.08.01.15.14.32.33-.12.06-.24.16-.31.14-.1-.04-.19-.17-.23-.28-.01-.03.15-.19.22-.19Zm-.57,23.07c.35.12.66.22.96.32q-.89.53-.96-.32Zm.92,11.69c.46-.33.24-1.23,1.24-.87-.22.52-.23,1.17-1.24.87Zm1.28,23.53c.37-.27.63-.47,1.06-.77q-.19,1.02-1.06.77Zm1.25-86.72c-.09-.05-.18-.11-.26-.16l.36-.64c.11.07.23.14.34.21l-.44.6Zm1.02,60.15c-.08-.12-.18-.24-.21-.37-.01-.06.12-.16.24-.32.1.2.2.33.2.46,0,.07-.15.15-.23.23Zm-.45-30.84l.1-.5c.09.02.19.05.28.07-.02.16-.04.33-.07.49-.11-.02-.21-.04-.32-.06Zm.38-31.11c-.3-.38-.57-.72-.93-1.18.6-.04,1.06-.08,1.6-.12.05.56.03,1-.67,1.3Zm1.54,4.56c.28.16.51.29.77.43q-.58.33-.77-.43Zm1.34,73.76c-.11-.06-.21-.17-.25-.29-.02-.04.16-.22.21-.21.12.03.22.14.37.26-.16.12-.28.26-.32.24Zm.41-25.31c-.09-.02-.18-.05-.26-.07-.07-.36-.14-.71-.17-.92.41-.7.76-1.3,1.19-2.03.12.22.37.47.32.61-.32.82-.7,1.61-1.07,2.41Zm1.66,31.66c-.23-.33-.41-.58-.58-.82.2-.47.45-.85,1-.56.34.18.2.72-.41,1.39Zm.19-72.71c-.26-.63-.06-.89.46-.9.14,0,.4.2.4.3-.01.63-.54.38-.86.59Zm1.06,32.2c-.1-.07-.17-.19-.25-.28.09-.06.19-.16.28-.15.07,0,.14.13.24.23-.11.09-.24.22-.26.2Zm.57,8.42c-.08-.07-.15-.13-.23-.2.18-.22.35-.45.53-.67.07.05.14.1.2.15-.17.24-.33.48-.5.72Zm1.54-19.38c-.25.38-.37.86-.54,1.29-.07-.02-.15-.04-.22-.05-.08-.63-.16-1.26-.24-1.95.62-.13,1.26-.27,2.12-.45-.46.46-.85.76-1.11,1.16Zm.78-30.65s-.04-.03-.05-.05c0,0,.01-.01.01-.01,0,0-.01.01-.01.01-.25-.33-.49-.66-.74-1,0-.01-.02-.02-.02-.03-.17-.08-.35-.16-.52-.25.06-.07.12-.15.18-.22.11.16.23.31.34.47.01,0,.03.01.04.02h-.01s.01,0,.01,0c.25.33.49.67.74,1,.02.02.02.04.04.06.42.39.84.77,1.33,1.21-.12.25-.27.56-.48.99-.79-.59-.39-1.58-.85-2.2Zm1.18,12.13c-.2-.21-.4-.33-.4-.45,0-.14.18-.28.28-.42.14.11.35.19.38.32.03.12-.13.29-.27.55Zm.22-16.72c1.56-.27,2.04-.03,2,.9-.31-.15-.57-.3-.85-.42-.29-.13-.58-.24-1.15-.48Zm1.45,39.88c.04-.09.13-.16.24-.29.05.18.13.29.1.38-.02.06-.17.09-.27.11-.02,0-.1-.15-.08-.2Zm.28,21.45c-.08-.04-.17-.16-.17-.26,0-.05.17-.18.22-.16.09.03.15.15.26.29-.14.06-.25.16-.31.13Zm1.17,11.65c.12-.27.24-.54.42-.96q.05.63-.42.96Zm.44-16.47v-.62c.06,0,.13,0,.19,0,.01.2.02.4.02.6,0,0-.14.01-.22.02Zm.04-18.52c-.1-.19-.2-.37-.29-.56.06-.03.11-.07.17-.1.13.15.26.31.39.46-.09.07-.18.13-.27.2Zm-.97-33.65c.55-.57.56-.57,1.47.43-.48-.14-.97-.29-1.47-.43Zm3.22-6.05c-.26-.04-.46-.1-.66-.1-.9.02-1.46-.28-1.79-1.23-.23-.64-.87-1.14-1.33-1.71-.25.12-.46.23-.66.32-.09-.08-.2-.14-.2-.19.07-1.07-.53-1.84-1.16-2.6-.47-.57-.47-.58-.41-1.44.54.66.95,1.24,1.44,1.74.5.52,1.1.93,1.6,1.45.41.43.84.9,1.04,1.44.3.82.83,1.27,1.6,1.53.3.1.67.18.53.76Zm-.15-6.43c-.06-.33-.03-.68-.04-1.02,0-.01-.02-.02-.02-.04h.02s-.02,0-.02,0c0-.01,0-.02.01-.03-.38-.56-.37-.56.25-.76-.1.29-.17.53-.25.76,0,0,0,.01.01.02,0,.02,0,.03,0,.05.3.49.59.97.92,1.52-.48.11-.8-.02-.89-.5Zm1.75-4.33c.1.16.21.24.21.33,0,.09-.09.18-.15.27-.07-.08-.17-.15-.19-.24-.02-.08.06-.19.13-.35Zm-.02,15.72c.29-.47.45-.73.64-1.04q.23.72-.64,1.04Zm1.23-9.34c-.22-.17-.43-.34-.65-.51.06-.08.11-.17.17-.25.24.15.47.3.71.45-.08.1-.15.21-.23.31Zm.39,41.71q.77-.33,1.01.63c-.42-.26-.71-.45-1.01-.63Zm.07-2.11c0-.08.11-.16.19-.28.1.12.24.24.22.28-.05.11-.18.19-.27.28-.05-.1-.14-.19-.14-.29Zm1.57-11.35c-.63-.27-1.2-.51-1.77-.76l.08-.24c.54.1,1.08.19,1.69.3v.7Zm.11-7.57h.98c.04.1.08.2.11.31-.21.09-.42.27-.62.25-.2-.02-.38-.24-.48-.56Zm.98,9.76c-.09-.03-.18-.07-.27-.1.05-.17.1-.35.14-.52.1.05.29.11.28.14-.03.17-.1.33-.16.49Zm.42,27.78c-.04-.09-.07-.19-.11-.28.07-.02.16-.07.2-.05.05.03.06.13.08.2-.06.04-.11.09-.17.13Zm.5-17.49c-.45.11-.67-.06-.55-.42.19-.58-.42-1.6.93-1.64-.14.76-.26,1.42-.38,2.06Zm.25-42.24c-.44-.17-.88-.33-1.32-.5.03-.09.06-.18.1-.27.51-.02,1.05-.14,1.37.44-.05.11-.1.22-.15.33Zm1.38,39.16s-.09-.09-.14-.13c.05.04.09.09.14.13-.21.1-.42.19-.81.37.1-.56.17-.96.24-1.36.07,0,.14,0,.21,0,.08.29.15.57.23.86.12-.21.25-.42.42-.71.24.52.07.73-.28.84Zm.99-19.34c-.06-.04-.13-.08-.19-.12.09-.18.18-.36.27-.55l.29.17c-.12.16-.24.33-.37.49Zm2.23,3.04c.02-.13.11-.25.28-.57.12.23.23.35.2.43-.04.12-.16.23-.26.3-.03.02-.23-.12-.22-.17Zm.44,54.06c-.13-.03-.23-.15-.34-.24.08-.08.16-.24.22-.23.14.02.26.13.46.23-.17.12-.28.25-.34.24Zm5.73,12.83c.58.16,1,.28,1.48.42-.73.63-.8.61-1.48-.42Zm9.32-18.14c-.09-.11-.23-.21-.21-.26.04-.12.15-.21.23-.31.06.08.18.17.18.25,0,.09-.11.18-.19.32Zm4.46,1.51c-.08-.07-.15-.14-.23-.21.06-.04.12-.12.17-.11.06,0,.11.09.17.14-.04.06-.08.13-.12.19Zm.57,2.59s-.2,0-.2-.02c-.05-.21-.08-.42-.11-.64.14,0,.27,0,.41,0-.03.22-.05.44-.09.65Zm15.37,9.71c.09,0,.19.04.38.09-.14.12-.21.24-.28.24-.09,0-.17-.11-.25-.18.05-.05.1-.14.16-.15Zm-4.89,7.69c-.07-.08-.15-.16-.22-.23.17-.18.34-.35.58-.61.44.81.05.83-.35.84Zm.36-17.48c.02.09.05.18.07.27-.96.66-1.26.73-1.89.33.67-.22,1.25-.41,1.82-.6Zm-2.56,21.47c-.64.77-.8.8-1.37.18.55-.07.92-.12,1.37-.18Zm-2.32-14.77c.12.15.24.3.35.46,0,0-.14.14-.14.13-.15-.13-.29-.27-.43-.41.07-.06.15-.12.22-.18Zm-.93-1.29c.13.67-.19.65-.76.66.33-.29.5-.43.76-.66Zm-2.34,1.97c.05-.01.14.11.25.21-.12.09-.2.2-.28.2-.06,0-.19-.14-.18-.2.02-.09.12-.19.21-.21Z"/>
      <g>
        <path class="cls-1" d="m484.92,221.95c-.06-.04-.12-.07-.18-.11,0,.07,0,.13,0,.2,0,.03.06.04.09.06.03-.05.06-.1.09-.15Z"/>
        <path class="cls-1" d="m485.58,223.26c-.02-.1-.04-.2-.06-.3-.32-.09-.63-.15-.89.48.42-.08.69-.13.95-.18Z"/>
        <path class="cls-1" d="m487.95,222.88v-.67c-.11.22-.11.44,0,.67Z"/>
        <path class="cls-1" d="m487.75,215.01c.08.07.14.14.21.21v-.52c-.05.08-.12.18-.2.3,0,0,0,.01,0,.02,0,0-.02,0-.02,0Z"/>
        <path class="cls-1" d="m486.31,219.9c-.29-.22-.46-.46-.61-.44-.18.02-.44.23-.47.4-.03.15.24.5.32.49.23-.04.42-.23.76-.44Z"/>
        <path class="cls-1" d="m449.49,222.6c.23.44.51.78.83,1.03h4.8c-.77-.12-.82-.4-.52-1.42.13.23.25.48.4.7.15.21.33.39.62.73h14.77s-.03-.09-.05-.14c-.04-.11-.08-.22-.11-.3-.48-.31-1.24.09-1.54-.79.44-.24.88-.48,1.56-.85-.38,1,.39,1.04.72,1.4.3.33.63.63,1.15.68h.24c-1.13-.72-.22-1.79-.57-2.64.87-.65,1.02-.62,1.44.22.32.65.65,1.3.96,1.91-.18.2-.31.36-.43.5h1.73c-.15-.42-.38-.81-.8-1.11-.59-.41-.91-.94-.63-1.6-.45-.64-1.48-.87-1.08-1.91.75.09,1.47.18,2.32.29.16-.38.33-.81.54-1.32,1.04.37,1.04,1.49,1.58,2.19.53.69.97,1.45,1.45,2.19.92-.93.9-1.34-.05-2.03-.66-.49-.75-2.35-.11-2.86.41-.33.79-.13,1.07.2.35.4.71.69,1.19.4.1-.61.19-1.17.28-1.73,0,0,0,0-.01-.01l.02-.02s-.02.02-.02.02c0,0,0-.02-.01-.03-.56-.25-1.12-.51-1.91-.86.6-.21.93-.32,1.35-.46.2.47.39.9.57,1.33,0,0,.02,0,.03.01,0,0,0,.02,0,.03.75.98,1.73,1.8,1.92,3.14.04.31.37.58.7,1.07.29-.74.5-1.27.69-1.74-.22-.77-1.26-.26-1.4-1.07-.09-.51-.3-1-.41-1.51-.02-.1.15-.25.37-.59.39.55.71,1.01,1.15,1.64.82-1.12,1.49-2.03,2.26-3.08.32.22.76.53,1.19.83,0,0,0,0,0,0-.16-.38-.31-.75-.51-1.24.36.19.59.31.71.42v-8.33c-.15-.27-.28-.51-.42-.76.15-.1.28-.18.42-.26v-4.64c-.73.19-1.47.26-2.24-.2.75-.08,1.5-.16,2.24-.25v-6.37h-25.65c-.3.1-.42.16-.47.13-.04-.02-.06-.07-.07-.13h-20.03c-.2.16-.35.3-.49.3-.1,0-.2-.15-.3-.3h-13.12v-89.68h-33.65v119.93h55.29c-.05-.23-.03-.55.05-1.03Zm33.92-8.7c.88-.81,1-.82,1.95-.25-.59.08-1.13.15-1.95.25Zm.66-4.75c.14-.08.28-.16.42-.24.04.05.07.11.11.16-.12.11-.24.22-.36.33-.06-.08-.11-.17-.17-.25Zm.74,2.93c.25.04.5.08.93.16-.52.47-.75.28-.93-.16Zm1.22-6.71c.06.04.12.07.18.11-.04.06-.06.16-.11.17-.05.01-.12-.06-.18-.1.04-.06.07-.12.11-.18Zm-.76,2.53c.6.69,1.12,1.44,1.76,2.3-.9.08-1-.63-1.38-.97-.42-.38-.83-.77-1.31-1.21.3-.28.66-.43.93-.12Zm-1.57-13.4c.37-.12.94.48,1.05,1.14.06.39.01.79.01,1.18-.49-.31-.98-.61-1.53-.95,0,0-.05-.07-.04-.14.07-.45-.11-1.03.51-1.23Zm.54,7.11c-.07.02-.16.07-.19.05-.07-.06-.12-.15-.17-.24.07-.02.13-.04.24-.07.04.08.08.17.13.25Zm-1.63.98c.58.03,1.15.1,1.6.49-.03.09-.06.17-.09.26l-1.6-.48c.03-.09.06-.18.09-.27Zm.04,5.34c.07.06.09.19.2.43-.27-.1-.42-.12-.52-.2-.07-.06-.08-.2-.17-.44.25.1.39.13.49.21Zm-1.26-1.48s.1.09.15.14c-.05.05-.1.13-.14.13-.06,0-.1-.08-.16-.13.05-.05.1-.09.14-.14Zm-.76,5.13c.63-.12,1.1.3,1.31,1.19-.67.08-1.35.15-2.03.23-.14-.78.11-1.3.72-1.42Zm-.78-13.81c.06.04.12.09.18.13-.04.05-.07.1-.11.15-.03-.02-.09-.05-.09-.08,0-.07.01-.14.02-.21Zm-2.52,16.84s-.09-.02-.09-.04c-.01-.06,0-.13,0-.2.06.03.13.06.19.08-.03.05-.06.11-.1.16Zm-.48-12.73c.16.08.31.16.47.24-.02.06-.05.12-.07.18-.18-.06-.36-.11-.54-.17.04-.08.09-.16.13-.24Zm-.84,8.55c.51.49,1.02.97,1.56,1.48-.24.53-.47,1.04-.73,1.59-.48-.13-.93-.21-.7-.87.25-.73.18-1.42-.38-2.04.08-.06.16-.12.25-.17Zm-4.48,3.86c-.09-.04-.17-.1-.25-.16.04-.06.09-.17.13-.16.09.01.18.07.28.12-.07.1-.14.21-.15.2Zm.96,3.39c-.09-.2.11-.52.18-.79.1,0,.2-.01.3-.02.15.28.3.56.45.83-.43.31-.78.33-.93-.02Zm.18-1.74c.06,0,.13,0,.18,0,.03,0,.04.05.06.08-.05.03-.12.09-.14.08-.05-.04-.07-.1-.11-.16Zm-.8-4.41c.25.08.52.24.67.45.29.41.5.88.81,1.45-.76-.32-1.3-.55-1.85-.78-.31-.13-.64-.27-.49-.68.14-.39.48-.57.87-.44Zm-.84-5.65c.09.02.24.1.25.16,0,.1-.09.2-.18.4-.15-.26-.21-.34-.23-.44,0-.03.12-.13.17-.12Zm-.36,13.4c.04.06.1.13.1.19,0,.04-.1.08-.15.13-.05-.05-.11-.1-.16-.15.07-.06.14-.11.21-.17Zm-1.08-6.82c-.28-.5-.56-.99-.84-1.49.81.2.91.79.84,1.49Zm-5.8,4.57s-.12-.13-.1-.15c.06-.08.15-.15.23-.22.04.05.08.11.13.19-.08.06-.17.13-.26.17Zm.82,2.14c-.14-.1-.28-.2-.42-.3.07-.07.14-.15.21-.22.14.11.28.21.42.32-.07.07-.14.14-.21.21Zm1.08,1.86c-.14-.19-.28-.38-.42-.56.05-.04.1-.07.15-.11.14.19.27.38.41.57-.05.03-.09.07-.14.1Zm1.34,1.81c.06.06.14.12.22.19-.06.06-.13.13-.19.19-.07-.08-.14-.15-.19-.24,0,0,.09-.08.16-.15Zm-.62-12.89s-.05.06-.07.08c-.05-.05-.1-.1-.15-.15,0,0,.05-.05.08-.09.05.05.1.1.14.16Zm-2.07-5.41s0,0,.01.01c.66-.02,1.3.05,1.73.61.15.2.12.55.17.84-.29-.04-.69.03-.86-.14-.4-.38-.7-.87-1.03-1.31,0,0-.02,0-.02,0h.01s-.01,0-.01,0c0-.02-.02-.04-.02-.05-.19-.19-.37-.38-.56-.57.08-.05.15-.1.23-.15.11.24.22.48.33.71.01.01.03.03.04.04Zm-.58-2.1s.03.06.04.09c-.06.03-.11.07-.17.1-.01-.03-.04-.08-.04-.08.05-.04.11-.07.17-.1Zm.65,12.42c-.33.28-.63.38-.82-.13-.18-.48-.31-.98-.47-1.5q.62.09,1.29,1.63Zm-4.93,2.89c-.07-.01-.15-.03-.22-.04l.08-.6c.08.01.17.03.25.04-.04.2-.08.4-.11.6Zm2.04-15.06c-.07.08-.14.16-.21.23-.15-.13-.31-.25-.46-.38.04-.06.08-.12.12-.18.18.11.36.22.54.33Zm-.73-7.04c.06.18.11.36.17.55-.06.02-.12.04-.19.05-.05-.18-.1-.37-.15-.55.06-.02.11-.03.17-.05Zm-.13,12.43c-.05.03-.1.07-.16.1-.02,0-.08-.05-.07-.06.02-.06.06-.11.09-.16.05.04.1.09.15.13Zm-.38-4.16c.06.05.11.1.17.16-.07.03-.12.07-.18.08-.02,0-.08-.06-.07-.08.02-.06.06-.11.09-.16Zm-1.7,8.56c.4-.01.81.07,1.22.11,0,.14,0,.27,0,.41-.37.08-.74.2-1.11.22-.13,0-.37-.2-.39-.34-.02-.13.19-.41.3-.41Zm-1.34.98c.03.06.07.12.1.18-.03.02-.09.05-.1.05-.04-.05-.07-.12-.11-.18.03-.02.07-.03.1-.05Zm-1.37,5.14s.06.12.09.18c-.06.02-.14.08-.17.06-.05-.03-.06-.12-.09-.18.06-.02.14-.08.17-.06Zm-1.1,2.19c.09.06.23.11.25.18.02.13-.04.27-.07.4l-.21.12c-.04-.11-.11-.22-.1-.32.01-.13.09-.25.14-.38Zm-3.18-3.35c-.09-.82-.18-1.67-.27-2.44,1.31,1.08,1.4,1.89.27,2.44Zm-25.78-86.99c.07.83-.23.95-.73.78l-.16-.34c.27-.13.53-.27.89-.45Zm-31.18,63.82c-.16-.33-.26-.46-.27-.6,0-.06.15-.14.24-.21.09.12.22.23.26.36.02.08-.09.2-.22.45Zm4.84,7.16c0-.21,0-.42,0-.63,0,0,.21-.02.21,0,.04.2.07.41.1.61-.11,0-.21.02-.32.03Zm25.47-10.53c-.01-.11.15-.23.24-.35.14.11.28.21.53.4-.23.12-.37.25-.46.23-.12-.03-.3-.17-.31-.28Zm.5,29.04s.06-.12.15-.3c.06.22.1.34.13.46-.09-.05-.19-.09-.28-.15Zm.65-44.48c-.45-.38-.85-.73-1.39-1.18,1.36.19,1.53.36,1.39,1.18Zm3.96,40.89c.03-.05.05-.11.08-.16,0,0,.09.02.09.04.01.06,0,.13,0,.19-.06-.02-.12-.04-.18-.06Zm1.17,3.37c-.06-.03-.12-.1-.13-.16,0-.04.07-.1.12-.17.06.1.12.18.17.27-.06.03-.13.09-.17.07Zm1.75-14.02c-.04-.06-.11-.14-.1-.19.02-.09.09-.17.18-.34.08.17.18.28.16.35-.02.08-.15.12-.24.18Zm7.03-10.6c-.04.07-.17.1-.26.12-.03,0-.11-.12-.1-.17.02-.1.08-.2.19-.43.12.31.2.43.17.48Zm8.08,21.09c.1.01.2.1.33.17-.17.11-.25.2-.28.18-.1-.05-.18-.13-.26-.2.07-.05.15-.16.22-.15Zm-.52-7.38c.05.11.11.21.12.31,0,.05-.11.16-.13.15-.09-.04-.16-.11-.24-.17.05-.05.09-.11.25-.29Zm-5.33,8.13c-.5-.49-.23-.94.07-1.32.08-.1.42,0,.73,0-.32.52-.54.88-.8,1.31Zm3.37-7.58c-.1-.04-.19-.09-.3-.14.08-.09.12-.18.17-.18.07,0,.16.06.19.12.02.05-.03.13-.05.2Zm1.16,9.48c.54.31,1.03.58,1.72.97-1.56,0-1.68-.08-1.72-.97Z"/>
        <path class="cls-1" d="m481.19,223.05c.2-.5.35-.89.53-1.34-.37-.06-.64-.1-1.07-.16-.05.66-.02,1.13.54,1.5Z"/>
        <path class="cls-1" d="m479.28,223.61s0,.01,0,.02h.39c-.1-.15-.2-.29-.31-.46-.06.29-.11.38-.09.44Z"/>
        <path class="cls-1" d="m482.08,219.68c-.2.37-.37.71-.6,1.14.41.28.76.5,1.1.73.07-.05.13-.1.2-.15-.44-.48.21-1.28-.7-1.72Z"/>
      </g>
    </g>
  </g>
</svg>